<svg width="34" height="34" viewBox="0 0 34 34" fill="none" xmlns="http://www.w3.org/2000/svg">
<g clip-path="url(#clip0_25_119)">
<mask id="mask0_25_119" style="mask-type:luminance" maskUnits="userSpaceOnUse" x="0" y="0" width="34" height="34">
<path d="M0 0H33.7188V33.7188H0V0Z" fill="white"/>
</mask>
<g mask="url(#mask0_25_119)">
<path d="M33.7188 16.9336C33.7188 16.3789 33.6914 15.8242 33.6367 15.2734C33.582 14.7227 33.5 14.1758 33.3906 13.6289C33.2852 13.0859 33.1484 12.5469 32.9883 12.0195C32.8281 11.4883 32.6406 10.9648 32.4297 10.4531C32.2148 9.94141 31.9805 9.44141 31.7188 8.94922C31.457 8.46094 31.1719 7.98437 30.8633 7.52344C30.5547 7.0625 30.2266 6.61719 29.875 6.19141C29.5195 5.76172 29.1484 5.35156 28.7578 4.95703C28.3633 4.56641 27.9531 4.19531 27.5273 3.84375C27.0977 3.49219 26.6523 3.16016 26.1914 2.85156C25.7305 2.54297 25.2539 2.25781 24.7656 1.99609C24.2773 1.73828 23.7734 1.5 23.2617 1.28906C22.75 1.07422 22.2305 0.886719 21.6992 0.726562C21.168 0.566406 20.6289 0.433594 20.0859 0.324219C19.543 0.214844 18.9922 0.132813 18.4414 0.078125C17.8906 0.023438 17.3359 0 16.7812 0C16.2266 0 15.6719 0.023438 15.1211 0.078125C14.5703 0.132813 14.0234 0.214844 13.4766 0.324219C12.9336 0.433594 12.3945 0.566406 11.8672 0.726562C11.3359 0.886719 10.8125 1.07422 10.3008 1.28906C9.78906 1.5 9.28906 1.73828 8.79688 1.99609C8.30859 2.25781 7.83203 2.54297 7.37109 2.85156C6.91016 3.16016 6.46484 3.49219 6.03906 3.84375C5.60937 4.19531 5.19922 4.56641 4.80469 4.95703C4.41406 5.35156 4.04297 5.76172 3.69141 6.19141C3.33984 6.61719 3.00781 7.0625 2.69922 7.52344C2.39062 7.98437 2.10547 8.46094 1.84766 8.94922C1.58594 9.44141 1.34766 9.94141 1.13672 10.4531C0.921875 10.9648 0.734375 11.4883 0.574219 12.0195C0.414063 12.5469 0.281251 13.0859 0.171875 13.6289C0.062501 14.1758 -0.0195318 14.7227 -0.0742188 15.2734C-0.125 15.8242 -0.152344 16.3789 -0.152344 16.9336C-0.152344 17.4883 -0.125 18.043 -0.0742188 18.5938C-0.0195318 19.1445 0.062501 19.6953 0.171875 20.2383C0.281251 20.7812 0.414063 21.3203 0.574219 21.8516C0.734375 22.3828 0.921875 22.9023 1.13672 23.4141C1.34766 23.9258 1.58594 24.4297 1.84766 24.918C2.10547 25.4062 2.39062 25.8828 2.69922 26.3438C3.00781 26.8047 3.33984 27.25 3.69141 27.6797C4.04297 28.1055 4.41406 28.5156 4.80469 28.9102C5.19922 29.3008 5.60937 29.6719 6.03906 30.0273C6.46484 30.3789 6.91016 30.707 7.37109 31.0156C7.83203 31.3242 8.30859 31.6094 8.79688 31.8711C9.28906 32.1328 9.78906 32.3672 10.3008 32.582C10.8125 32.793 11.3359 32.9805 11.8672 33.1406C12.3945 33.3008 12.9336 33.4375 13.4766 33.543C14.0234 33.6523 14.5703 33.7344 15.1211 33.7891C15.6719 33.8438 16.2266 33.8711 16.7812 33.8711C17.3359 33.8711 17.8906 33.8438 18.4414 33.7891C18.9922 33.7344 19.543 33.6523 20.0859 33.543C20.6289 33.4375 21.168 33.3008 21.6992 33.1406C22.2305 32.9805 22.75 32.793 23.2617 32.582C23.7734 32.3672 24.2773 32.1328 24.7656 31.8711C25.2539 31.6094 25.7305 31.3242 26.1914 31.0156C26.6523 30.707 27.0977 30.3789 27.5273 30.0273C27.9531 29.6719 28.3633 29.3008 28.7578 28.9102C29.1484 28.5156 29.5195 28.1055 29.875 27.6797C30.2266 27.25 30.5547 26.8047 30.8633 26.3438C31.1719 25.8828 31.457 25.4062 31.7188 24.918C31.9805 24.4297 32.2148 23.9258 32.4297 23.4141C32.6406 22.9023 32.8281 22.3828 32.9883 21.8516C33.1484 21.3203 33.2852 20.7812 33.3906 20.2383C33.5 19.6953 33.582 19.1445 33.6367 18.5938C33.6914 18.043 33.7188 17.4883 33.7188 16.9336ZM15.5781 26.6055L8.80469 19.8281C8.64453 19.6719 8.51953 19.4883 8.43359 19.2773C8.34766 19.0703 8.30469 18.8516 8.30469 18.6289C8.30469 18.4023 8.34766 18.1836 8.43359 17.9766C8.51953 17.7695 8.64453 17.5859 8.80469 17.4258C8.96484 17.2656 9.14844 17.1406 9.35547 17.0547C9.56641 16.9688 9.78125 16.9258 10.0078 16.9258C10.2344 16.9258 10.4492 16.9688 10.6602 17.0547C10.8672 17.1406 11.0508 17.2656 11.2109 17.4258L15.0898 21.3203V8.46484C15.0898 8.24219 15.1328 8.02344 15.2188 7.81641C15.3047 7.60937 15.4258 7.42578 15.5859 7.26953C15.7422 7.10938 15.9258 6.98828 16.1328 6.90234C16.3398 6.81641 16.5586 6.77344 16.7812 6.77344C17.0078 6.77344 17.2227 6.81641 17.4297 6.90234C17.6367 6.98828 17.8203 7.10938 17.9805 7.26953C18.1367 7.42578 18.2617 7.60937 18.3477 7.81641C18.4336 8.02344 18.4766 8.24219 18.4766 8.46484V21.3203L22.3555 17.4258C22.5117 17.2656 22.6953 17.1445 22.9062 17.0547C23.1133 16.9688 23.332 16.9258 23.5547 16.9258C23.7812 16.9258 24 16.9688 24.207 17.0547C24.4141 17.1445 24.5977 17.2656 24.7578 17.4258C24.918 17.5859 25.0391 17.7695 25.1289 17.9766C25.2148 18.1836 25.2578 18.4023 25.2578 18.6289C25.2578 18.8516 25.2148 19.0703 25.1289 19.2773C25.0391 19.4883 24.918 19.6719 24.7578 19.8281L17.9844 26.6055C17.8203 26.7617 17.6367 26.8789 17.4258 26.9609C16.9961 27.1367 16.5664 27.1367 16.1367 26.9609C15.9297 26.8789 15.7422 26.7617 15.5781 26.6055Z" fill="white"/>
</g>
</g>
<defs>
<clipPath id="clip0_25_119">
<rect width="33.7188" height="33.7188" fill="white"/>
</clipPath>
</defs>
</svg>
