<svg width="38" height="38" viewBox="0 0 38 38" fill="none" xmlns="http://www.w3.org/2000/svg">
<g clip-path="url(#clip0_56_27)">
<mask id="mask0_56_27" style="mask-type:luminance" maskUnits="userSpaceOnUse" x="0" y="0" width="38" height="38">
<path d="M0 37.4805L-1.63832e-06 0L37.4805 -1.63832e-06L37.4805 37.4805L0 37.4805Z" fill="white"/>
</mask>
<g mask="url(#mask0_56_27)">
<path d="M18.6875 -8.16857e-07C18.0742 -7.90049e-07 17.4648 0.031249 16.8555 0.089843C16.2461 0.148437 15.6406 0.23828 15.043 0.359374C14.4414 0.476562 13.8477 0.624999 13.2617 0.804687C12.6758 0.980468 12.1016 1.1875 11.5352 1.42187C10.9727 1.65625 10.418 1.91797 9.8789 2.20703C9.33984 2.49609 8.8125 2.80859 8.30469 3.14844C7.79687 3.48828 7.30469 3.85156 6.83203 4.24219C6.35937 4.62891 5.90625 5.03906 5.47265 5.47266C5.03906 5.90625 4.62891 6.35938 4.24219 6.83203C3.85547 7.30469 3.48828 7.79687 3.14844 8.30469C2.80859 8.8125 2.49609 9.33594 2.20703 9.87891C1.91797 10.418 1.65625 10.9687 1.42187 11.5352C1.1875 12.1016 0.984374 12.6758 0.804686 13.2617C0.628905 13.8477 0.480467 14.4414 0.359374 15.0391C0.23828 15.6406 0.148436 16.2461 0.0898429 16.8555C0.0312489 17.4648 -8.43664e-07 18.0742 -8.16857e-07 18.6875C-7.9022e-07 19.2969 0.031249 19.9102 0.089843 20.5195C0.148436 21.1289 0.23828 21.7305 0.359374 22.332C0.480467 22.9336 0.628906 23.5273 0.804687 24.1094C0.984375 24.6953 1.1875 25.2734 1.42187 25.8398C1.65625 26.4023 1.91797 26.957 2.20703 27.4961C2.49609 28.0352 2.80859 28.5586 3.14844 29.0703C3.48828 29.5781 3.85547 30.0703 4.24219 30.543C4.62891 31.0156 5.03906 31.4687 5.47266 31.9023C5.90625 32.332 6.35938 32.7422 6.83203 33.1328C7.30469 33.5195 7.79688 33.8828 8.30469 34.2227C8.8125 34.5664 9.33984 34.8789 9.87891 35.168C10.418 35.457 10.9727 35.7187 11.5352 35.9531C12.1016 36.1875 12.6758 36.3906 13.2617 36.5703C13.8477 36.7461 14.4414 36.8945 15.043 37.0156C15.6406 37.1328 16.2461 37.2227 16.8555 37.2852C17.4648 37.3437 18.0742 37.375 18.6875 37.375C19.3008 37.375 19.9102 37.3437 20.5195 37.2852C21.1289 37.2227 21.7344 37.1328 22.332 37.0156C22.9336 36.8945 23.5273 36.7461 24.1133 36.5703C24.6992 36.3906 25.2734 36.1875 25.8398 35.9531C26.4062 35.7187 26.957 35.457 27.4961 35.168C28.0352 34.8789 28.5625 34.5664 29.0703 34.2227C29.5781 33.8828 30.0703 33.5195 30.543 33.1328C31.0156 32.7422 31.4687 32.332 31.9023 31.9023C32.3359 31.4687 32.7461 31.0156 33.1328 30.543C33.5195 30.0703 33.8867 29.5781 34.2266 29.0703C34.5664 28.5586 34.8789 28.0352 35.168 27.4961C35.457 26.957 35.7187 26.4023 35.9531 25.8398C36.1875 25.2734 36.3945 24.6953 36.5703 24.1094C36.7461 23.5273 36.8945 22.9336 37.0156 22.332C37.1367 21.7305 37.2266 21.1289 37.2852 20.5195C37.3437 19.9102 37.375 19.2969 37.375 18.6875C37.375 18.0742 37.3437 17.4648 37.2852 16.8555C37.2266 16.2461 37.1367 15.6406 37.0156 15.0391C36.8945 14.4414 36.7461 13.8477 36.5703 13.2617C36.3906 12.6758 36.1875 12.1016 35.9531 11.5352C35.7187 10.9687 35.457 10.418 35.168 9.8789C34.8789 9.33594 34.5664 8.8125 34.2266 8.30469C33.8867 7.79687 33.5195 7.30469 33.1328 6.83203C32.7461 6.35937 32.3359 5.90625 31.9023 5.47265C31.4687 5.03906 31.0156 4.62891 30.543 4.24219C30.0703 3.85156 29.5781 3.48828 29.0703 3.14844C28.5625 2.80859 28.0352 2.49609 27.4961 2.20703C26.957 1.91797 26.4062 1.65625 25.8398 1.42187C25.2734 1.1875 24.6992 0.980467 24.1133 0.804686C23.5273 0.624998 22.9336 0.476562 22.332 0.359374C21.7344 0.23828 21.1289 0.148437 20.5195 0.0898429C19.9102 0.0312489 19.3008 -8.43664e-07 18.6875 -8.16857e-07ZM29.3594 20.0117L21.8828 27.4883C21.707 27.6641 21.5039 27.8008 21.2734 27.8984C21.0469 27.9922 20.8047 28.043 20.5547 28.043C20.3086 28.043 20.0664 27.9922 19.8359 27.8984C19.6094 27.8008 19.4063 27.6641 19.2305 27.4883C19.0508 27.3125 18.918 27.1094 18.8203 26.8789C18.7266 26.6484 18.6758 26.4102 18.6758 26.1602C18.6758 25.9141 18.7266 25.6719 18.8203 25.4414C18.918 25.2148 19.0508 25.0117 19.2305 24.8359L23.5273 20.5547L9.34375 20.5547C9.09766 20.5547 8.85937 20.5078 8.62891 20.4141C8.39844 20.3164 8.19922 20.1836 8.02344 20.0078C7.84766 19.832 7.71094 19.6289 7.61719 19.4023C7.52344 19.1719 7.47656 18.9336 7.47656 18.6875C7.47656 18.4375 7.52344 18.1992 7.61719 17.9727C7.71094 17.7422 7.84766 17.5391 8.02344 17.3672C8.19922 17.1914 8.39844 17.0547 8.62891 16.9609C8.85937 16.8672 9.09766 16.8164 9.34375 16.8164L23.5273 16.8164L19.2305 12.5391C19.0547 12.3633 18.918 12.1602 18.8242 11.9297C18.7266 11.6992 18.6797 11.4609 18.6797 11.2109C18.6797 10.9609 18.7266 10.7227 18.8242 10.4922C18.918 10.2656 19.0547 10.0625 19.2305 9.88672C19.4062 9.70703 19.6094 9.57422 19.8398 9.47656C20.0664 9.38281 20.3086 9.33594 20.5547 9.33594C20.8047 9.33594 21.043 9.38281 21.2734 9.47656C21.5039 9.57422 21.707 9.70703 21.8828 9.88672L29.3594 17.3594C29.5312 17.5391 29.6602 17.7461 29.75 17.9766C29.9453 18.4492 29.9453 18.9219 29.75 19.3984C29.6602 19.6289 29.5312 19.832 29.3594 20.0117Z" fill="#0B476A"/>
</g>
</g>
<defs>
<clipPath id="clip0_56_27">
<rect width="37.375" height="37.375" fill="white" transform="translate(0 37.375) rotate(-90)"/>
</clipPath>
</defs>
</svg>
