<svg width="38" height="38" viewBox="0 0 38 38" fill="none" xmlns="http://www.w3.org/2000/svg">
<g clip-path="url(#clip0_56_33)">
<mask id="mask0_56_33" style="mask-type:luminance" maskUnits="userSpaceOnUse" x="-1" y="0" width="39" height="38">
<path d="M-0.105469 0H37.375V37.4805H-0.105469V0Z" fill="white"/>
</mask>
<g mask="url(#mask0_56_33)">
<path d="M37.375 18.6875C37.375 18.0742 37.3438 17.4648 37.2852 16.8555C37.2266 16.2461 37.1367 15.6406 37.0156 15.043C36.8984 14.4414 36.75 13.8477 36.5703 13.2617C36.3945 12.6758 36.1875 12.1016 35.9531 11.5352C35.7188 10.9727 35.457 10.418 35.168 9.87891C34.8789 9.33984 34.5664 8.8125 34.2266 8.30469C33.8867 7.79688 33.5234 7.30469 33.1328 6.83203C32.7461 6.35938 32.3359 5.90625 31.9023 5.47266C31.4688 5.03906 31.0156 4.62891 30.543 4.24219C30.0703 3.85547 29.5781 3.48828 29.0703 3.14844C28.5625 2.80859 28.0391 2.49609 27.4961 2.20703C26.957 1.91797 26.4063 1.65625 25.8398 1.42188C25.2734 1.1875 24.6992 0.984376 24.1133 0.804688C23.5273 0.628907 22.9336 0.480468 22.3359 0.359375C21.7344 0.238281 21.1289 0.148437 20.5195 0.0898438C19.9102 0.0312498 19.3008 0 18.6875 0C18.0781 0 17.4648 0.0312498 16.8555 0.0898438C16.2461 0.148437 15.6445 0.238281 15.043 0.359375C14.4414 0.480468 13.8477 0.628907 13.2656 0.804688C12.6797 0.984376 12.1016 1.1875 11.5352 1.42188C10.9727 1.65625 10.418 1.91797 9.87891 2.20703C9.33984 2.49609 8.81641 2.80859 8.30469 3.14844C7.79688 3.48828 7.30469 3.85547 6.83203 4.24219C6.35938 4.62891 5.90625 5.03906 5.47266 5.47266C5.04297 5.90625 4.63281 6.35938 4.24219 6.83203C3.85547 7.30469 3.49219 7.79688 3.15234 8.30469C2.80859 8.8125 2.49609 9.33984 2.20703 9.87891C1.91797 10.418 1.65625 10.9727 1.42188 11.5352C1.1875 12.1016 0.984376 12.6758 0.804688 13.2617C0.628907 13.8477 0.480469 14.4414 0.359375 15.043C0.242187 15.6406 0.152344 16.2461 0.0898438 16.8555C0.0312507 17.4648 0 18.0742 0 18.6875C0 19.3008 0.0312507 19.9102 0.0898438 20.5195C0.152344 21.1289 0.242187 21.7344 0.359375 22.332C0.480469 22.9336 0.628907 23.5273 0.804688 24.1133C0.984376 24.6992 1.1875 25.2734 1.42188 25.8398C1.65625 26.4062 1.91797 26.957 2.20703 27.4961C2.49609 28.0352 2.80859 28.5625 3.15234 29.0703C3.49219 29.5781 3.85547 30.0703 4.24219 30.543C4.63281 31.0156 5.04297 31.4687 5.47266 31.9023C5.90625 32.3359 6.35938 32.7461 6.83203 33.1328C7.30469 33.5195 7.79688 33.8867 8.30469 34.2266C8.81641 34.5664 9.33984 34.8789 9.87891 35.168C10.418 35.457 10.9727 35.7188 11.5352 35.9531C12.1016 36.1875 12.6797 36.3945 13.2656 36.5703C13.8477 36.7461 14.4414 36.8945 15.043 37.0156C15.6445 37.1367 16.2461 37.2266 16.8555 37.2852C17.4648 37.3438 18.0781 37.375 18.6875 37.375C19.3008 37.375 19.9102 37.3438 20.5195 37.2852C21.1289 37.2266 21.7344 37.1367 22.3359 37.0156C22.9336 36.8945 23.5273 36.7461 24.1133 36.5703C24.6992 36.3906 25.2734 36.1875 25.8398 35.9531C26.4063 35.7188 26.957 35.457 27.4961 35.168C28.0391 34.8789 28.5625 34.5664 29.0703 34.2266C29.5781 33.8867 30.0703 33.5195 30.543 33.1328C31.0156 32.7461 31.4688 32.3359 31.9023 31.9023C32.3359 31.4687 32.7461 31.0156 33.1328 30.543C33.5234 30.0703 33.8867 29.5781 34.2266 29.0703C34.5664 28.5625 34.8789 28.0352 35.168 27.4961C35.457 26.957 35.7188 26.4062 35.9531 25.8398C36.1875 25.2734 36.3945 24.6992 36.5703 24.1133C36.75 23.5273 36.8984 22.9336 37.0156 22.332C37.1367 21.7344 37.2266 21.1289 37.2852 20.5195C37.3438 19.9102 37.375 19.3008 37.375 18.6875ZM17.3633 29.3594L9.88672 21.8828C9.71094 21.707 9.57422 21.5039 9.47656 21.2734C9.38281 21.0469 9.33203 20.8047 9.33203 20.5547C9.33203 20.3086 9.38281 20.0664 9.47656 19.8359C9.57422 19.6094 9.71094 19.4063 9.88672 19.2305C10.0625 19.0508 10.2656 18.918 10.4961 18.8203C10.7266 18.7266 10.9648 18.6758 11.2148 18.6758C11.4609 18.6758 11.7031 18.7266 11.9336 18.8203C12.1602 18.918 12.3633 19.0508 12.5391 19.2305L16.8203 23.5273V9.34375C16.8203 9.09766 16.8672 8.85938 16.9609 8.62891C17.0586 8.39844 17.1914 8.19922 17.3672 8.02344C17.543 7.84766 17.7461 7.71094 17.9727 7.61719C18.2031 7.52344 18.4414 7.47656 18.6875 7.47656C18.9375 7.47656 19.1758 7.52344 19.4023 7.61719C19.6328 7.71094 19.8359 7.84766 20.0078 8.02344C20.1836 8.19922 20.3203 8.39844 20.4141 8.62891C20.5078 8.85938 20.5586 9.09766 20.5586 9.34375V23.5273L24.8359 19.2305C25.0117 19.0547 25.2148 18.918 25.4453 18.8242C25.6758 18.7266 25.9141 18.6797 26.1641 18.6797C26.4141 18.6797 26.6523 18.7266 26.8828 18.8242C27.1094 18.918 27.3125 19.0547 27.4883 19.2305C27.668 19.4063 27.8008 19.6094 27.8984 19.8398C27.9922 20.0664 28.0391 20.3086 28.0391 20.5547C28.0391 20.8047 27.9922 21.043 27.8984 21.2734C27.8008 21.5039 27.668 21.707 27.4883 21.8828L20.0156 29.3594C19.8359 29.5312 19.6289 29.6602 19.3984 29.75C18.9258 29.9453 18.4531 29.9453 17.9766 29.75C17.7461 29.6602 17.543 29.5312 17.3633 29.3594Z" fill="#0B476A"/>
</g>
</g>
<defs>
<clipPath id="clip0_56_33">
<rect width="37.375" height="37.375" fill="white"/>
</clipPath>
</defs>
</svg>
