<svg width="28" height="30" viewBox="0 0 28 30" fill="none" xmlns="http://www.w3.org/2000/svg">
<g clip-path="url(#clip0_25_101)">
<mask id="mask0_25_101" style="mask-type:luminance" maskUnits="userSpaceOnUse" x="0" y="-1" width="28" height="31">
<path d="M0 -0.0194702H27.7266V29.2071H0V-0.0194702Z" fill="white"/>
</mask>
<g mask="url(#mask0_25_101)">
<path d="M22.7344 2.89069H21.3867V0.875061C21.3867 0.390686 20.9922 6.10352e-05 20.5117 6.10352e-05C20.0273 6.10352e-05 19.6367 0.394592 19.6367 0.875061V2.89459H7.60938V0.875061C7.60938 0.390686 7.21484 6.10352e-05 6.73438 6.10352e-05C6.25 6.10352e-05 5.85938 0.394592 5.85938 0.875061V2.89459H5.00781C2.24219 2.89459 0 5.13678 0 7.9024V24.0118C0 26.7813 2.24219 29.0235 5.00781 29.0235H22.7344C25.5039 29.0235 27.7461 26.7813 27.7461 24.0118V7.9024C27.75 5.13678 25.5039 2.89069 22.7344 2.89069ZM19.6328 3.81647V5.63678C19.6328 6.12116 20.0273 6.51178 20.5078 6.51178C20.9922 6.51178 21.3828 6.11725 21.3828 5.63678V3.88678C21.9453 4.211 22.3242 4.81647 22.3242 5.51178C22.3242 6.55084 21.4805 7.39459 20.4414 7.39459C19.4062 7.39459 18.5625 6.55084 18.5625 5.51178C18.5703 4.76178 19.0039 4.12116 19.6328 3.81647ZM5.85547 3.84772V5.63678C5.85547 6.12116 6.25 6.51178 6.73047 6.51178C7.21484 6.51178 7.60547 6.11725 7.60547 5.63678V3.84772C8.20313 4.16412 8.60547 4.78912 8.60547 5.50787C8.60547 6.54694 7.76563 7.39069 6.72656 7.39069C5.6875 7.39069 4.84766 6.54694 4.84766 5.50787C4.85156 4.78912 5.26172 4.16412 5.85547 3.84772ZM25.9961 24.0118C25.9961 25.8087 24.5352 27.2657 22.7383 27.2657H5.00781C3.21094 27.2657 1.75391 25.8047 1.75391 24.0118V10.6641H25.9961V24.0118Z" fill="#0B476A"/>
</g>
<path d="M7.63287 15.7188H5.20709C5.01178 15.7188 4.85162 15.5587 4.85162 15.3633V12.9376C4.85162 12.7422 5.01178 12.5821 5.20709 12.5821H7.63287C7.82819 12.5821 7.98834 12.7422 7.98834 12.9376V15.3633C7.98444 15.5587 7.82819 15.7188 7.63287 15.7188Z" fill="#0B476A"/>
<path d="M7.63287 20.6954H5.20709C5.01178 20.6954 4.85162 20.5352 4.85162 20.3399V17.9141C4.85162 17.7188 5.01178 17.5587 5.20709 17.5587H7.63287C7.82819 17.5587 7.98834 17.7188 7.98834 17.9141V20.3399C7.98444 20.5391 7.82819 20.6954 7.63287 20.6954Z" fill="#0B476A"/>
<path d="M7.63287 25.6719H5.20709C5.01178 25.6719 4.85162 25.5157 4.85162 25.3204V22.8907C4.85162 22.6954 5.01178 22.5391 5.20709 22.5391H7.63287C7.82819 22.5391 7.98834 22.6954 7.98834 22.8907V25.3243C7.98444 25.5157 7.82819 25.6719 7.63287 25.6719Z" fill="#0B476A"/>
<path d="M12.6094 15.7188H10.1837C9.98834 15.7188 9.82819 15.5587 9.82819 15.3633V12.9376C9.82819 12.7422 9.98834 12.5821 10.1837 12.5821H12.6094C12.8047 12.5821 12.9649 12.7422 12.9649 12.9376V15.3633C12.9649 15.5587 12.8047 15.7188 12.6094 15.7188Z" fill="#0B476A"/>
<path d="M12.6094 20.6954H10.1837C9.98834 20.6954 9.82819 20.5352 9.82819 20.3399V17.9141C9.82819 17.7188 9.98834 17.5587 10.1837 17.5587H12.6094C12.8047 17.5587 12.9649 17.7188 12.9649 17.9141V20.3399C12.9649 20.5391 12.8047 20.6954 12.6094 20.6954Z" fill="#0B476A"/>
<path d="M12.6094 25.6719H10.1837C9.98834 25.6719 9.82819 25.5157 9.82819 25.3204V22.8907C9.82819 22.6954 9.98834 22.5391 10.1837 22.5391H12.6094C12.8047 22.5391 12.9649 22.6954 12.9649 22.8907V25.3243C12.9649 25.5157 12.8047 25.6719 12.6094 25.6719Z" fill="#0B476A"/>
<path d="M17.5899 15.7188H15.1641C14.9688 15.7188 14.8087 15.5587 14.8087 15.3633V12.9376C14.8087 12.7422 14.9688 12.5821 15.1641 12.5821H17.5899C17.7852 12.5821 17.9454 12.7422 17.9454 12.9376V15.3633C17.9415 15.5587 17.7852 15.7188 17.5899 15.7188Z" fill="#0B476A"/>
<path d="M17.5899 20.6954H15.1641C14.9688 20.6954 14.8087 20.5352 14.8087 20.3399V17.9141C14.8087 17.7188 14.9688 17.5587 15.1641 17.5587H17.5899C17.7852 17.5587 17.9454 17.7188 17.9454 17.9141V20.3399C17.9415 20.5391 17.7852 20.6954 17.5899 20.6954Z" fill="#0B476A"/>
<path d="M17.5899 25.6719H15.1641C14.9688 25.6719 14.8087 25.5157 14.8087 25.3204V22.8907C14.8087 22.6954 14.9688 22.5391 15.1641 22.5391H17.5899C17.7852 22.5391 17.9454 22.6954 17.9454 22.8907V25.3243C17.9415 25.5157 17.7852 25.6719 17.5899 25.6719Z" fill="#0B476A"/>
<path d="M22.5704 15.7188H20.1446C19.9493 15.7188 19.7891 15.5587 19.7891 15.3633V12.9376C19.7891 12.7422 19.9493 12.5821 20.1446 12.5821H22.5704C22.7657 12.5821 22.9258 12.7422 22.9258 12.9376V15.3633C22.9219 15.5587 22.7618 15.7188 22.5704 15.7188Z" fill="#0B476A"/>
<path d="M22.5704 20.6954H20.1446C19.9493 20.6954 19.7891 20.5352 19.7891 20.3399V17.9141C19.7891 17.7188 19.9493 17.5587 20.1446 17.5587H22.5704C22.7657 17.5587 22.9258 17.7188 22.9258 17.9141V20.3399C22.9219 20.5391 22.7618 20.6954 22.5704 20.6954Z" fill="#0B476A"/>
</g>
<defs>
<clipPath id="clip0_25_101">
<rect width="27.7266" height="29.207" fill="white"/>
</clipPath>
</defs>
</svg>
