<svg width="85" height="68" viewBox="0 0 85 68" fill="none" xmlns="http://www.w3.org/2000/svg">
<g clip-path="url(#clip0_25_255)">
<mask id="mask0_25_255" style="mask-type:luminance" maskUnits="userSpaceOnUse" x="0" y="30" width="54" height="38">
<path d="M0 30.46H53.4336V67.4053H0V30.46Z" fill="white"/>
</mask>
<g mask="url(#mask0_25_255)">
<path d="M50.2617 63.624L35.4883 48.4678L42.8711 41.6631C42.8516 41.6475 42.8359 41.6279 42.8164 41.6123C42.3203 41.1045 41.8203 40.5889 41.3398 40.0732L27.9375 52.4053C26.9883 53.2842 25.4844 53.2842 24.5352 52.4053L3.94531 33.4482H36.1992C35.7188 32.7217 35.2656 31.9756 34.8555 31.2256H1.10938C0.496094 31.2256 0 31.7256 0 32.3389V66.3506C0 66.9639 0.496094 67.46 1.10938 67.46H51.3711C51.9922 67.46 52.4805 66.9639 52.4805 66.3506V49.1631C51.7344 48.7178 50.9961 48.2568 50.2617 47.7686V63.624ZM2.22266 34.8701L16.9844 48.4678L2.22266 63.624V34.8701ZM3.73828 65.249L18.6289 49.9717L23.043 54.0381C23.9414 54.8545 25.0938 55.2842 26.25 55.2842C27.4023 55.2842 28.543 54.8662 29.4375 54.0381L33.8516 49.9717L48.7422 65.249H3.73828Z" fill="#0B476A"/>
</g>
<path d="M57.6523 17.5105C57.5546 18.1159 57.9609 18.6863 58.5664 18.7917C60.332 19.0847 61.9336 19.9089 63.2109 21.1823C64.4804 22.4519 65.3086 24.0573 65.6093 25.8269C65.6992 26.3698 66.1679 26.7488 66.7031 26.7488C66.7656 26.7488 66.8281 26.7409 66.8906 26.7331C67.4921 26.6355 67.9023 26.0573 67.8046 25.4519C67.4296 23.2331 66.3906 21.2058 64.7929 19.6081C63.1953 18.0105 61.1679 16.9597 58.9492 16.5964C58.3164 16.4988 57.7578 16.9089 57.6523 17.5105Z" fill="#0B476A"/>
<path d="M73.8985 25.745C73.9492 26.3231 74.4297 26.7606 75 26.7606C75.0352 26.7606 75.0703 26.7606 75.0977 26.7489C75.711 26.6981 76.1524 26.1552 76.1016 25.5419C75.6992 21.1083 73.7461 16.9364 70.5938 13.7802C67.4492 10.6356 63.2735 8.68252 58.8321 8.27237C58.2188 8.20987 57.6875 8.66299 57.625 9.27627C57.5703 9.88955 58.0157 10.4247 58.6289 10.4872C62.5469 10.8427 66.2422 12.5731 69.0196 15.3544C71.8203 18.1356 73.543 21.831 73.8985 25.745Z" fill="#0B476A"/>
<mask id="mask1_25_255" style="mask-type:luminance" maskUnits="userSpaceOnUse" x="57" y="-1" width="28" height="29">
<path d="M57.4336 -0.0556641H84.4336V27.46H57.4336V-0.0556641Z" fill="white"/>
</mask>
<g mask="url(#mask1_25_255)">
<path d="M76.4374 7.95586C71.7226 3.23711 65.4687 0.420703 58.8163 0.00273388C58.2109 -0.0402351 57.6757 0.428515 57.6406 1.0418C57.6054 1.65508 58.0663 2.17852 58.6796 2.21367C64.7929 2.59648 70.539 5.18242 74.8749 9.51836C79.2109 13.8504 81.8046 19.6004 82.1757 25.7098C82.2109 26.2957 82.6992 26.7488 83.2773 26.7488C83.3046 26.7488 83.3242 26.7488 83.3476 26.7488C83.9609 26.7137 84.4257 26.1902 84.3867 25.577C83.9804 18.9246 81.1562 12.6629 76.4374 7.95586Z" fill="#0B476A"/>
</g>
<path d="M75.4531 36.9052L66.9258 32.4872C64.9063 31.4481 62.4297 31.9911 61.0352 33.7763L58.9141 36.5028C56.8438 35.2958 54.9336 33.9442 52.7031 31.7177C50.3946 29.4052 49.0625 27.5224 47.8438 25.3739L50.5352 23.2685C52.3203 21.8739 52.8633 19.3935 51.8242 17.3778L47.4336 8.91299C46.8125 7.72158 45.7227 6.84267 44.4258 6.51455C43.1289 6.17861 41.7422 6.41689 40.6211 7.15517L35.1875 10.7802C33.3633 11.995 32.3242 14.1083 32.4688 16.288C32.5742 17.8153 32.7774 19.956 33.1797 21.4911C34.8399 27.8974 38.8203 34.4794 44.3789 40.038C49.9414 45.6005 56.5235 49.581 62.9258 51.2411C64.4727 51.6395 66.6211 51.8466 68.168 51.9442C68.3008 51.952 68.4258 51.952 68.5586 51.952C70.6563 51.952 72.5821 50.9013 73.711 49.1356L77.2461 43.6474C77.9649 42.5263 78.1797 41.1513 77.8321 39.87C77.5039 38.6005 76.6328 37.5185 75.4531 36.9052ZM75.3906 42.456L71.8477 47.9442C71.125 49.0731 69.8906 49.7411 68.5586 49.7411C68.4688 49.7411 68.3828 49.7411 68.3086 49.7294C66.8711 49.6317 64.8711 49.4481 63.4961 49.0927C57.4649 47.5185 51.2383 43.7528 45.9531 38.4677C40.668 33.1825 36.8906 26.956 35.3281 20.9325C34.9727 19.5536 34.7852 17.5653 34.6875 16.1356C34.5977 14.7411 35.2578 13.3895 36.4219 12.6161L41.8555 8.99502C42.2656 8.71767 42.7539 8.57705 43.2422 8.57705C43.4571 8.57705 43.6602 8.60439 43.875 8.65517C44.5664 8.83486 45.1446 9.2958 45.4727 9.9247L49.8594 18.4091C50.4102 19.4755 50.125 20.788 49.1758 21.538L45.7305 24.2177C45.3047 24.5575 45.1797 25.1435 45.4375 25.6239C46.8477 28.2177 48.3594 30.5185 51.1289 33.288C53.8321 35.9872 56.086 37.4911 58.6563 38.913C59.1328 39.1786 59.7305 39.0536 60.0664 38.6278L62.7852 35.1435C63.5235 34.1942 64.836 33.9091 65.9102 34.4599L74.4414 38.8661C75.0625 39.1942 75.5313 39.7645 75.711 40.4481C75.8789 41.1317 75.7735 41.8622 75.3906 42.456Z" fill="#0B476A"/>
</g>
<defs>
<clipPath id="clip0_25_255">
<rect width="84.389" height="67.4051" fill="white"/>
</clipPath>
</defs>
</svg>
