<svg width="21" height="21" viewBox="0 0 21 21" fill="none" xmlns="http://www.w3.org/2000/svg">
<g clip-path="url(#clip0_25_131)">
<mask id="mask0_25_131" style="mask-type:luminance" maskUnits="userSpaceOnUse" x="0" y="0" width="21" height="21">
<path d="M0 0H20.9805V20.9805H0V0Z" fill="white"/>
</mask>
<g mask="url(#mask0_25_131)">
<path d="M10.3672 20.7344C7.59766 20.7344 4.99609 19.6562 3.03516 17.6992C1.07812 15.7383 0 13.1367 0 10.3672C0 7.59766 1.07812 4.99609 3.03516 3.03516C4.99609 1.07812 7.59766 0 10.3672 0C13.1367 0 15.7422 1.07812 17.6992 3.03516C19.6562 4.99609 20.7344 7.59766 20.7344 10.3672C20.7344 13.1367 19.6562 15.7383 17.6992 17.6992C15.7422 19.6562 13.1367 20.7344 10.3672 20.7344ZM10.3672 1.58203C5.52344 1.58203 1.58203 5.52344 1.58203 10.3672C1.58203 15.2109 5.52344 19.1523 10.3672 19.1523C15.2109 19.1523 19.1523 15.2109 19.1523 10.3672C19.1523 5.52344 15.2109 1.58203 10.3672 1.58203Z" fill="#0B476A"/>
</g>
<path d="M13.8086 14.3711C13.6563 14.3711 13.5 14.3242 13.3633 14.2305L9.50781 11.5898C9.29297 11.4414 9.16406 11.1953 9.16406 10.9336L9.17578 4.46875C9.17578 4.03125 9.52734 3.67578 9.96484 3.67578C10.4023 3.67969 10.7578 4.03125 10.7578 4.46875L10.7461 10.5195L14.2578 12.9258C14.6172 13.1719 14.707 13.668 14.4609 14.0273C14.3086 14.25 14.0625 14.3711 13.8086 14.3711Z" fill="#0B476A"/>
</g>
<defs>
<clipPath id="clip0_25_131">
<rect width="20.7344" height="20.7344" fill="white"/>
</clipPath>
</defs>
</svg>
