<svg width="35" height="35" viewBox="0 0 35 35" fill="none" xmlns="http://www.w3.org/2000/svg">
<g clip-path="url(#clip0_25_57)">
<path d="M19.0078 12.1406V14.9609H22.5547L22.0586 18.8164H19.0078V27.6562H15.1328V18.8164H11.8203V14.9609H15.1328V12.1406C15.1328 9.08594 17.6055 7.02734 20.6562 7.02734C22 7.02734 22.8477 7.23047 22.8477 7.23047V10.4883H20.6562C19.75 10.4883 19.0078 11.2344 19.0078 12.1406Z" fill="#0B476A"/>
<mask id="mask0_25_57" style="mask-type:luminance" maskUnits="userSpaceOnUse" x="0" y="0" width="35" height="35">
<path d="M0 0H34.4805V34.4844H0V0Z" fill="white"/>
</mask>
<g mask="url(#mask0_25_57)">
<path d="M17.3398 34.6836C7.78516 34.6836 0 26.9102 0 17.3398C0 7.77344 7.78516 0 17.3398 0C26.9102 0 34.6797 7.78906 34.6797 17.3398C34.6797 26.8945 26.9102 34.6836 17.3398 34.6836ZM17.3398 0.949219C8.29688 0.949219 0.949219 8.29688 0.949219 17.3398C0.949219 26.3828 8.29688 33.7305 17.3398 33.7305C26.3828 33.7305 33.7305 26.3828 33.7305 17.3398C33.7305 8.29688 26.3828 0.949219 17.3398 0.949219Z" fill="#0B476A"/>
</g>
</g>
<defs>
<clipPath id="clip0_25_57">
<rect width="34.4805" height="34.4844" fill="white"/>
</clipPath>
</defs>
</svg>
