<svg width="34" height="34" viewBox="0 0 34 34" fill="none" xmlns="http://www.w3.org/2000/svg">
<g clip-path="url(#clip0_25_77)">
<path d="M21.4727 7.24219H12.5938C9.65234 7.24219 7.25781 9.64062 7.25781 12.5781V21.457C7.25781 24.3984 9.65234 26.793 12.5938 26.793H21.4727C24.4102 26.793 26.8086 24.3984 26.8086 21.457V12.5938C26.8086 9.64062 24.4102 7.24219 21.4727 7.24219ZM25.1289 21.4727C25.1289 23.4922 23.4922 25.1289 21.4727 25.1289H12.5938C10.5703 25.1289 8.92188 23.4922 8.92188 21.4727V12.5938C8.92188 10.5703 10.5703 8.92188 12.5938 8.92188H21.4727C23.4922 8.92188 25.1289 10.5586 25.1289 12.5938V21.4727Z" fill="#0B476A"/>
<path d="M23.5664 11.6758C23.5664 12.3359 23.0352 12.8789 22.3594 12.8789C21.7031 12.8789 21.1562 12.3516 21.1562 11.6758C21.1562 11.0156 21.6875 10.4727 22.3594 10.4727C23.0352 10.4844 23.5664 11.0156 23.5664 11.6758Z" fill="#0B476A"/>
<path d="M17.0273 12.0469C14.2852 12.0469 12.0508 14.2852 12.0508 17.0234C12.0508 19.7656 14.2852 22 17.0273 22C19.7656 22 22.0039 19.7656 22.0039 17.0234C22.0039 14.2852 19.7812 12.0469 17.0273 12.0469ZM17.0273 20.3242C15.2031 20.3242 13.7266 18.8477 13.7266 17.0234C13.7266 15.2031 15.2031 13.7266 17.0273 13.7266C18.8477 13.7266 20.3242 15.2031 20.3242 17.0234C20.3242 18.8477 18.8477 20.3242 17.0273 20.3242Z" fill="#0B476A"/>
<mask id="mask0_25_77" style="mask-type:luminance" maskUnits="userSpaceOnUse" x="0" y="0" width="34" height="34">
<path d="M0 0H33.7344V33.7344H0V0Z" fill="white"/>
</mask>
<g mask="url(#mask0_25_77)">
<path d="M17.0273 34.0508C7.64453 34.0508 0 26.418 0 17.0234C0 7.64453 7.64453 0 17.0273 0C26.418 0 34.0508 7.64453 34.0508 17.0234C34.0508 26.418 26.418 34.0508 17.0273 34.0508ZM17.0273 0.933594C8.14844 0.933594 0.933594 8.14844 0.933594 17.0234C0.933594 25.9023 8.14844 33.1172 17.0273 33.1172C25.9023 33.1172 33.1172 25.9023 33.1172 17.0234C33.1172 8.14844 25.9023 0.933594 17.0273 0.933594Z" fill="#0B476A"/>
</g>
</g>
<defs>
<clipPath id="clip0_25_77">
<rect width="33.7344" height="33.7344" fill="white"/>
</clipPath>
</defs>
</svg>
