<svg width="21" height="21" viewBox="0 0 21 21" fill="none" xmlns="http://www.w3.org/2000/svg">
<g clip-path="url(#clip0_25_125)">
<mask id="mask0_25_125" style="mask-type:luminance" maskUnits="userSpaceOnUse" x="0" y="0" width="21" height="21">
<path d="M0 0H20.9805V20.9805H0V0Z" fill="white"/>
</mask>
<g mask="url(#mask0_25_125)">
<path d="M11.0117 9.07812V9.09766C11.0117 9.07812 11.0117 9.07812 11.0117 9.07812ZM20.7344 10.3672C20.7344 16.1016 16.1055 20.7344 10.3672 20.7344C4.62891 20.7344 0 16.1016 0 10.3672C0 4.62891 4.62891 0 10.3672 0C16.1055 0 20.7344 4.62891 20.7344 10.3672ZM19.4688 10.3672C19.4688 5.34375 15.3906 1.28906 10.3672 1.28906C5.36719 1.28906 1.28906 5.34375 1.28906 10.3672V10.3906C1.28906 15.4102 5.36719 19.4648 10.3906 19.4648C15.4141 19.4453 19.4688 15.3906 19.4688 10.3672ZM10.3672 7.11719C11.082 7.11719 11.6562 6.54297 11.6562 5.82812C11.6562 5.11328 11.082 4.53906 10.3672 4.53906C9.65234 4.53906 9.07812 5.11328 9.07812 5.82812C9.07812 6.54297 9.65234 7.11719 10.3672 7.11719ZM11.6562 14.9062H11.0117V9.12109V9.09766V9.07812C11.0117 8.70703 10.7148 8.42969 10.3672 8.42969H9.07812C8.70703 8.42969 8.43359 8.73047 8.43359 9.07812C8.43359 9.44531 8.73047 9.72266 9.07812 9.72266H9.72266V14.9062H9.07812C8.70703 14.9062 8.43359 15.2031 8.43359 15.5508C8.43359 15.918 8.73047 16.1953 9.07812 16.1953H11.6562C12.0273 16.1953 12.3047 15.8945 12.3047 15.5508C12.3047 15.1797 12.0273 14.9062 11.6562 14.9062Z" fill="#0B476A"/>
</g>
</g>
<defs>
<clipPath id="clip0_25_125">
<rect width="20.7344" height="20.7344" fill="white"/>
</clipPath>
</defs>
</svg>
