<svg width="105" height="107" viewBox="0 0 105 107" fill="none" xmlns="http://www.w3.org/2000/svg">
<g clip-path="url(#clip0_25_472)">
<mask id="mask0_25_472" style="mask-type:luminance" maskUnits="userSpaceOnUse" x="59" y="-1" width="6" height="5">
<path d="M59.0586 -0.00390625H64.0586V3.94922H59.0586V-0.00390625Z" fill="white"/>
</mask>
<g mask="url(#mask0_25_472)">
<path d="M60.5508 3.34375C60.8008 3.59375 61.2227 3.67578 61.5586 3.67578C61.9766 3.67578 62.3984 3.51172 62.7344 3.17578C63.4062 2.50781 63.4062 1.50391 62.7344 0.835938L62.3984 0.503906C62.0625 0.167968 61.6406 0 61.2227 0H60.8008C59.8789 0 59.1211 0.753907 59.1211 1.67188C59.1211 2.50781 59.7109 3.17578 60.5508 3.34375Z" fill="black"/>
</g>
<mask id="mask1_25_472" style="mask-type:luminance" maskUnits="userSpaceOnUse" x="51" y="-1" width="6" height="5">
<path d="M51.0586 -0.00390625H56.0586V3.94922H51.0586V-0.00390625Z" fill="white"/>
</mask>
<g mask="url(#mask1_25_472)">
<path d="M53.4961 3.34375H54.3359C55.2578 3.34375 56.0156 2.58984 56.0156 1.67188C56.0156 0.753907 55.2578 0 54.3359 0H53.4961C52.5703 0 51.8164 0.753907 51.8164 1.67188C51.8164 2.58984 52.5703 3.34375 53.4961 3.34375Z" fill="black"/>
</g>
<mask id="mask2_25_472" style="mask-type:luminance" maskUnits="userSpaceOnUse" x="15" y="-1" width="6" height="5">
<path d="M15.0586 -0.00390625H20.0586V3.94922H15.0586V-0.00390625Z" fill="white"/>
</mask>
<g mask="url(#mask2_25_472)">
<path d="M16.9648 3.34375H17.8047C18.7305 3.34375 19.4844 2.58984 19.4844 1.67188C19.4844 0.753907 18.7305 0 17.8047 0H16.9648C16.043 0 15.2852 0.753907 15.2852 1.67188C15.2852 2.58984 16.043 3.34375 16.9648 3.34375Z" fill="black"/>
</g>
<mask id="mask3_25_472" style="mask-type:luminance" maskUnits="userSpaceOnUse" x="44" y="-1" width="6" height="5">
<path d="M44.0586 -0.00390625H49.0586V3.94922H44.0586V-0.00390625Z" fill="white"/>
</mask>
<g mask="url(#mask3_25_472)">
<path d="M46.1914 3.34375H47.0273C47.9531 3.34375 48.707 2.58984 48.707 1.67188C48.707 0.753907 47.9531 0 47.0273 0H46.1914C45.2656 0 44.5117 0.753907 44.5117 1.67188C44.5117 2.58984 45.2656 3.34375 46.1914 3.34375Z" fill="black"/>
</g>
<mask id="mask4_25_472" style="mask-type:luminance" maskUnits="userSpaceOnUse" x="29" y="-1" width="7" height="5">
<path d="M29.0586 -0.00390625H35.0586V3.94922H29.0586V-0.00390625Z" fill="white"/>
</mask>
<g mask="url(#mask4_25_472)">
<path d="M31.5781 3.34375H32.418C33.3398 3.34375 34.0977 2.58984 34.0977 1.67188C34.0977 0.753907 33.3398 0 32.418 0H31.5781C30.6523 0 29.8984 0.753907 29.8984 1.67188C29.8984 2.58984 30.6523 3.34375 31.5781 3.34375Z" fill="black"/>
</g>
<mask id="mask5_25_472" style="mask-type:luminance" maskUnits="userSpaceOnUse" x="37" y="-1" width="6" height="5">
<path d="M37.0586 -0.00390625H42.0586V3.94922H37.0586V-0.00390625Z" fill="white"/>
</mask>
<g mask="url(#mask5_25_472)">
<path d="M38.8828 3.34375H39.7227C40.6484 3.34375 41.4023 2.58984 41.4023 1.67188C41.4023 0.753907 40.6484 0 39.7227 0H38.8828C37.9609 0 37.2031 0.753907 37.2031 1.67188C37.2031 2.58984 37.9609 3.34375 38.8828 3.34375Z" fill="black"/>
</g>
<mask id="mask6_25_472" style="mask-type:luminance" maskUnits="userSpaceOnUse" x="22" y="-1" width="6" height="5">
<path d="M22.0586 -0.00390625H27.0586V3.94922H22.0586V-0.00390625Z" fill="white"/>
</mask>
<g mask="url(#mask6_25_472)">
<path d="M24.2695 3.34375H25.1094C26.0352 3.34375 26.7891 2.58984 26.7891 1.67188C26.7891 0.753907 26.0352 0 25.1094 0H24.2695C23.3477 0 22.5898 0.753907 22.5898 1.67188C22.5898 2.58984 23.3477 3.34375 24.2695 3.34375Z" fill="black"/>
</g>
<mask id="mask7_25_472" style="mask-type:luminance" maskUnits="userSpaceOnUse" x="8" y="-1" width="6" height="5">
<path d="M8.05859 -0.00390625H13.0586V3.94922H8.05859V-0.00390625Z" fill="white"/>
</mask>
<g mask="url(#mask7_25_472)">
<path d="M10.0781 3.76172C10.668 3.76172 11.1719 3.51172 11.4219 3.00781C11.8438 2.67578 12.1797 2.17188 12.1797 1.67188C12.1797 0.753907 11.4219 0 10.5 0H10.0781C9.15625 0 8.39844 0.753907 8.39844 1.67188V2.08984C8.39844 3.00781 9.15625 3.76172 10.0781 3.76172Z" fill="black"/>
</g>
<path d="M10.0781 54.7344C11.0039 54.7344 11.7578 53.9805 11.7578 53.0625V52.2266C11.7578 51.3086 11.0039 50.5547 10.0781 50.5547C9.15625 50.5547 8.39844 51.3086 8.39844 52.2266V53.0625C8.39844 53.9805 9.15625 54.7344 10.0781 54.7344Z" fill="black"/>
<path d="M10.0781 69.2734C11.0039 69.2734 11.7578 68.5195 11.7578 67.6016V66.7656C11.7578 65.8477 11.0039 65.0938 10.0781 65.0938C9.15625 65.0938 8.39844 65.8477 8.39844 66.7656V67.6016C8.39844 68.5195 9.15625 69.2734 10.0781 69.2734Z" fill="black"/>
<path d="M10.0781 47.4648C11.0039 47.4648 11.7578 46.7109 11.7578 45.793V44.957C11.7578 44.0352 11.0039 43.2852 10.0781 43.2852C9.15625 43.2852 8.39844 44.0352 8.39844 44.957V45.793C8.39844 46.7109 9.15625 47.4648 10.0781 47.4648Z" fill="black"/>
<path d="M10.0781 62.0039C11.0039 62.0039 11.7578 61.25 11.7578 60.332V59.4961C11.7578 58.5781 11.0039 57.8242 10.0781 57.8242C9.15625 57.8242 8.39844 58.5781 8.39844 59.4961V60.332C8.39844 61.25 9.15625 62.0039 10.0781 62.0039Z" fill="black"/>
<path d="M10.0781 32.8398C11.0039 32.8398 11.7578 32.0898 11.7578 31.168V30.332C11.7578 29.4141 11.0039 28.6602 10.0781 28.6602C9.15625 28.6602 8.39844 29.4141 8.39844 30.332V31.168C8.39844 32.1719 9.15625 32.8398 10.0781 32.8398Z" fill="black"/>
<path d="M10.0781 11.0312C11.0039 11.0312 11.7578 10.2773 11.7578 9.35938V8.52344C11.7578 7.60547 11.0039 6.85156 10.0781 6.85156C9.15625 6.85156 8.39844 7.60547 8.39844 8.52344V9.35938C8.39844 10.2773 9.15625 11.0312 10.0781 11.0312Z" fill="black"/>
<path d="M10.0781 40.1914C11.0039 40.1914 11.7578 39.4414 11.7578 38.5234V37.6875C11.7578 36.7656 11.0039 36.0156 10.0781 36.0156C9.15625 36.0156 8.39844 36.7656 8.39844 37.6875V38.5234C8.39844 39.4414 9.15625 40.1914 10.0781 40.1914Z" fill="black"/>
<path d="M10.0781 18.3008C11.0039 18.3008 11.7578 17.5469 11.7578 16.6289V15.793C11.7578 14.875 11.0039 14.1211 10.0781 14.1211C9.15625 14.1211 8.39844 14.875 8.39844 15.793V16.6289C8.39844 17.5469 9.15625 18.3008 10.0781 18.3008Z" fill="black"/>
<path d="M10.0781 25.5703C11.0039 25.5703 11.7578 24.8164 11.7578 23.8984V23.0625C11.7578 22.1445 11.0039 21.3906 10.0781 21.3906C9.15625 21.3906 8.39844 22.1445 8.39844 23.0625V23.8984C8.39844 24.8164 9.15625 25.5703 10.0781 25.5703Z" fill="black"/>
<path d="M35.7774 33.2578C35.7774 32.1719 36.6993 31.168 37.8751 30C38.9688 28.8281 40.1446 27.6602 40.5626 26.0703C41.0665 24.3164 40.6485 22.3945 39.4727 20.8086C38.129 19.0508 36.1134 17.9649 34.0118 17.8828C30.7384 17.8008 27.9649 19.8867 27.2931 22.8125C27.1251 23.7305 27.7149 24.5664 28.5548 24.8164C29.4767 24.9844 30.3165 24.4024 30.5704 23.5664C30.9063 22.1445 32.2501 21.2266 33.8438 21.2266C34.9376 21.2266 35.9454 21.8945 36.6993 22.8125C37.2892 23.5664 37.4571 24.4024 37.2032 25.1524C36.9532 25.9883 36.1134 26.8242 35.2735 27.7422C33.8438 29.2461 32.2501 30.918 32.3321 33.3399V36.2656C32.3321 37.1836 33.0899 37.9375 34.0118 37.9375C34.9376 37.9375 35.6915 37.1836 35.6915 36.2656V33.2578H35.7774Z" fill="black"/>
<path d="M34.0273 41.2656C34.25 41.2695 34.4648 41.3125 34.668 41.3984C34.875 41.4844 35.0547 41.6094 35.2109 41.7656C35.3672 41.9258 35.4883 42.1055 35.5703 42.3125C35.6523 42.5156 35.6953 42.7305 35.6914 42.9531C35.6914 43.1758 35.6445 43.3867 35.5586 43.5898C35.4727 43.793 35.3477 43.9727 35.1875 44.1289C35.0312 44.2852 34.8477 44.4023 34.6406 44.4883C34.4336 44.5703 34.2187 44.6094 33.9961 44.6094C33.7734 44.6055 33.5586 44.5625 33.3555 44.4766C33.1523 44.3867 32.9688 44.2656 32.8125 44.1094C32.6562 43.9492 32.5391 43.7695 32.4531 43.5625C32.3711 43.3555 32.332 43.1445 32.332 42.9219C32.3359 42.6992 32.3789 42.4883 32.4688 42.2812C32.5547 42.0781 32.6758 41.8984 32.8359 41.7461C32.9961 41.5898 33.1758 41.4687 33.3828 41.3867C33.5898 41.3047 33.8047 41.2656 34.0273 41.2656Z" fill="black"/>
<mask id="mask8_25_472" style="mask-type:luminance" maskUnits="userSpaceOnUse" x="0" y="70" width="37" height="37">
<path d="M0 70.9492H36.0586V106.961H0V70.9492Z" fill="white"/>
</mask>
<g mask="url(#mask8_25_472)">
<path d="M35.2734 89.4102C35.2734 79.7187 27.3789 71.8633 17.6367 71.8633C7.89453 71.8633 0 79.7187 0 89.4102C0 99.1016 7.89453 106.957 17.6367 106.957C27.3789 106.957 35.2734 99.1016 35.2734 89.4102ZM17.6367 103.617C9.74219 103.617 3.35938 97.2656 3.35938 89.4102C3.35938 81.5547 9.74219 75.2031 17.6367 75.2031C25.5312 75.2031 31.9141 81.5547 31.9141 89.4102C31.9141 97.2656 25.5312 103.617 17.6367 103.617Z" fill="black"/>
</g>
<path d="M17.6367 91.918C18.5625 91.918 19.3164 91.1641 19.3164 90.2461V81.8906C19.3164 80.9727 18.5625 80.2188 17.6367 80.2188C16.7148 80.2188 15.957 80.9727 15.957 81.8906V90.2461C15.957 91.1641 16.7148 91.918 17.6367 91.918Z" fill="black"/>
<path d="M19.3164 96.9297C19.3164 97.1523 19.2734 97.3672 19.1875 97.5703C19.1016 97.7734 18.9805 97.957 18.8242 98.1133C18.668 98.2695 18.4844 98.3906 18.2812 98.4766C18.0742 98.5586 17.8594 98.6016 17.6367 98.6016C17.4141 98.6016 17.1992 98.5586 16.9961 98.4766C16.7891 98.3906 16.6055 98.2695 16.4492 98.1133C16.293 97.957 16.1719 97.7734 16.0859 97.5703C16 97.3672 15.957 97.1523 15.957 96.9297C15.957 96.7109 16 96.4961 16.0859 96.293C16.1719 96.0859 16.293 95.9062 16.4492 95.75C16.6055 95.5938 16.7891 95.4727 16.9961 95.3867C17.1992 95.3008 17.4141 95.2578 17.6367 95.2578C17.8594 95.2578 18.0742 95.3008 18.2812 95.3867C18.4844 95.4727 18.668 95.5938 18.8242 95.75C18.9805 95.9062 19.1016 96.0859 19.1875 96.293C19.2734 96.4961 19.3164 96.7109 19.3164 96.9297Z" fill="black"/>
<mask id="mask9_25_472" style="mask-type:luminance" maskUnits="userSpaceOnUse" x="36" y="37" width="69" height="69">
<path d="M36.0586 37.9492H104.723V105.949H36.0586V37.9492Z" fill="white"/>
</mask>
<g mask="url(#mask9_25_472)">
<path d="M102.539 94.6758L86.2461 78.4648C85.1562 77.3789 83.7266 76.793 82.2148 76.875C81.125 76.875 80.0312 77.2109 79.1094 77.8789L76.4219 75.3711C83.6445 66.5156 83.1406 53.3945 74.9102 45.125C66.0938 36.3477 51.7305 36.3477 42.832 45.125C34.0117 53.8984 34.0117 68.2695 42.832 77.043C47.2812 81.4727 53.0742 83.6445 58.8711 83.6445C64.3281 83.6445 69.7891 81.7227 74.1523 77.7969L76.7578 80.2188C75.0781 82.4766 75.2461 85.5664 77.1758 87.4883L93.4688 103.699C95.6523 105.871 99.3477 105.703 101.531 103.531L102.453 102.613C104.637 100.441 104.723 96.8477 102.539 94.6758ZM72.5586 74.7031C65 82.2227 52.7383 82.2227 45.2656 74.7031C37.707 67.1836 37.707 54.9844 45.2656 47.5469C52.8242 40.0273 65.0859 40.0273 72.5586 47.5469C80.1172 54.9844 80.1172 67.1836 72.5586 74.7031ZM100.02 100.273L99.0938 101.191C98.1719 102.113 96.6602 102.195 95.8203 101.359L79.5273 85.1484C78.6875 84.3125 78.6875 82.8086 79.6953 81.8906L80.6211 80.9727C81.4609 80.1367 82.9727 79.9688 83.8945 80.8047L100.188 97.0156C101.027 97.8516 100.941 99.3555 100.02 100.273Z" fill="black"/>
</g>
<mask id="mask10_25_472" style="mask-type:luminance" maskUnits="userSpaceOnUse" x="28" y="99" width="62" height="8">
<path d="M28.0586 99.9492H89.0586V106.961H28.0586V99.9492Z" fill="white"/>
</mask>
<g mask="url(#mask10_25_472)">
<path d="M85.6602 101.945C85.6602 102.863 84.9023 103.617 83.9805 103.617H33.0039C31.8281 104.867 30.4844 106.039 28.9727 106.957H83.9805C86.1641 106.957 88.0117 105.621 88.6836 103.699L85.6602 100.691V101.945Z" fill="black"/>
</g>
<path d="M18.4766 68.5195V11.6992C18.4766 10.7812 19.2344 10.0273 20.1562 10.0273H63.7422V26.8242C63.7422 29.582 66.0078 31.7539 68.7812 31.7539H85.6602V74.1172C86.75 74.5352 87.7578 75.2031 88.5977 76.0391L88.9336 76.375V30.418C88.9336 29.9141 88.7656 29.1641 88.3477 28.8281L66.5977 7.10156C66.3438 6.85156 65.8398 6.6875 65.4219 6.6875H20.1562C17.3867 6.6875 15.1172 8.94141 15.1172 11.6992V68.6875C15.957 68.6055 16.7969 68.5195 17.6367 68.5195C17.8906 68.5195 18.2266 68.5195 18.4766 68.5195ZM67.1016 12.4531L82.8867 28.4102H68.7812C67.8555 28.4102 67.1016 27.6602 67.1016 26.8242V12.4531Z" fill="black"/>
</g>
<defs>
<clipPath id="clip0_25_472">
<rect width="104.134" height="106.957" fill="white"/>
</clipPath>
</defs>
</svg>
