<svg width="50" height="51" viewBox="0 0 50 51" fill="none" xmlns="http://www.w3.org/2000/svg">
<g clip-path="url(#clip0_25_145)">
<mask id="mask0_25_145" style="mask-type:luminance" maskUnits="userSpaceOnUse" x="27" y="0" width="4" height="2">
<path d="M27.4062 0H30.4062V1.92969H27.4062V0Z" fill="white"/>
</mask>
<g mask="url(#mask0_25_145)">
<path d="M28.6836 1.59375C28.8008 1.71094 29 1.75391 29.1602 1.75391C29.3594 1.75391 29.5586 1.67188 29.7148 1.51172C30.0352 1.19531 30.0352 0.71875 29.7148 0.398438L29.5586 0.242188C29.3984 0.0820315 29.1992 0 29 0H28.8008C28.3633 0 28.0039 0.359375 28.0039 0.796875C28.0039 1.19531 28.2852 1.51172 28.6836 1.59375Z" fill="white"/>
</g>
<mask id="mask1_25_145" style="mask-type:luminance" maskUnits="userSpaceOnUse" x="24" y="0" width="4" height="2">
<path d="M24.4062 0H27.4062V1.92969H24.4062V0Z" fill="white"/>
</mask>
<g mask="url(#mask1_25_145)">
<path d="M25.3398 1.59375H25.7383C26.1758 1.59375 26.5352 1.23438 26.5352 0.796875C26.5352 0.359375 26.1758 0 25.7383 0H25.3398C24.9023 0 24.543 0.359375 24.543 0.796875C24.543 1.23438 24.9023 1.59375 25.3398 1.59375Z" fill="white"/>
</g>
<mask id="mask2_25_145" style="mask-type:luminance" maskUnits="userSpaceOnUse" x="6" y="0" width="4" height="2">
<path d="M6.40625 0H9.40625V1.92969H6.40625V0Z" fill="white"/>
</mask>
<g mask="url(#mask2_25_145)">
<path d="M8.03516 1.59375H8.43359C8.87109 1.59375 9.23047 1.23438 9.23047 0.796875C9.23047 0.359375 8.87109 0 8.43359 0H8.03516C7.59766 0 7.23828 0.359375 7.23828 0.796875C7.23828 1.23438 7.59766 1.59375 8.03516 1.59375Z" fill="white"/>
</g>
<mask id="mask3_25_145" style="mask-type:luminance" maskUnits="userSpaceOnUse" x="20" y="0" width="4" height="2">
<path d="M20.4062 0H23.4062V1.92969H20.4062V0Z" fill="white"/>
</mask>
<g mask="url(#mask3_25_145)">
<path d="M21.8789 1.59375H22.2773C22.7148 1.59375 23.0742 1.23438 23.0742 0.796875C23.0742 0.359375 22.7148 0 22.2773 0H21.8789C21.4414 0 21.082 0.359375 21.082 0.796875C21.082 1.23438 21.4414 1.59375 21.8789 1.59375Z" fill="white"/>
</g>
<mask id="mask4_25_145" style="mask-type:luminance" maskUnits="userSpaceOnUse" x="13" y="0" width="4" height="2">
<path d="M13.4062 0H16.4062V1.92969H13.4062V0Z" fill="white"/>
</mask>
<g mask="url(#mask4_25_145)">
<path d="M14.957 1.59375H15.3555C15.793 1.59375 16.1523 1.23438 16.1523 0.796875C16.1523 0.359375 15.793 0 15.3555 0H14.957C14.5195 0 14.1602 0.359375 14.1602 0.796875C14.1602 1.23438 14.5195 1.59375 14.957 1.59375Z" fill="white"/>
</g>
<mask id="mask5_25_145" style="mask-type:luminance" maskUnits="userSpaceOnUse" x="17" y="0" width="4" height="2">
<path d="M17.4062 0H20.4062V1.92969H17.4062V0Z" fill="white"/>
</mask>
<g mask="url(#mask5_25_145)">
<path d="M18.418 1.59375H18.8164C19.2539 1.59375 19.6133 1.23438 19.6133 0.796875C19.6133 0.359375 19.2539 0 18.8164 0H18.418C17.9805 0 17.6211 0.359375 17.6211 0.796875C17.6211 1.23438 17.9805 1.59375 18.418 1.59375Z" fill="white"/>
</g>
<mask id="mask6_25_145" style="mask-type:luminance" maskUnits="userSpaceOnUse" x="10" y="0" width="4" height="2">
<path d="M10.4062 0H13.4062V1.92969H10.4062V0Z" fill="white"/>
</mask>
<g mask="url(#mask6_25_145)">
<path d="M11.4961 1.59375H11.8945C12.332 1.59375 12.6914 1.23438 12.6914 0.796875C12.6914 0.359375 12.332 0 11.8945 0H11.4961C11.0586 0 10.6992 0.359375 10.6992 0.796875C10.6992 1.23438 11.0586 1.59375 11.4961 1.59375Z" fill="white"/>
</g>
<mask id="mask7_25_145" style="mask-type:luminance" maskUnits="userSpaceOnUse" x="3" y="0" width="4" height="2">
<path d="M3.40625 0H6.40625V1.92969H3.40625V0Z" fill="white"/>
</mask>
<g mask="url(#mask7_25_145)">
<path d="M4.77344 1.79297C5.05078 1.79297 5.28906 1.67188 5.41016 1.43359C5.60938 1.27344 5.76953 1.03516 5.76953 0.796875C5.76953 0.359375 5.41016 0 4.97266 0H4.77344C4.33594 0 3.97656 0.359375 3.97656 0.796875V0.996094C3.97656 1.43359 4.33594 1.79297 4.77344 1.79297Z" fill="white"/>
</g>
<path d="M4.77344 26.0586C5.21094 26.0586 5.57031 25.6992 5.57031 25.2617V24.8633C5.57031 24.4258 5.21094 24.0703 4.77344 24.0703C4.33594 24.0703 3.97656 24.4258 3.97656 24.8633V25.2617C3.97656 25.6992 4.33594 26.0586 4.77344 26.0586Z" fill="white"/>
<path d="M4.77344 32.9805C5.21094 32.9805 5.57031 32.6211 5.57031 32.1836V31.7852C5.57031 31.3477 5.21094 30.9922 4.77344 30.9922C4.33594 30.9922 3.97656 31.3477 3.97656 31.7852V32.1836C3.97656 32.6211 4.33594 32.9805 4.77344 32.9805Z" fill="white"/>
<path d="M4.77344 22.5977C5.21094 22.5977 5.57031 22.2383 5.57031 21.8008V21.4023C5.57031 20.9648 5.21094 20.6094 4.77344 20.6094C4.33594 20.6094 3.97656 20.9648 3.97656 21.4023V21.8008C3.97656 22.2383 4.33594 22.5977 4.77344 22.5977Z" fill="white"/>
<path d="M4.77344 29.5195C5.21094 29.5195 5.57031 29.1602 5.57031 28.7227V28.3242C5.57031 27.8867 5.21094 27.5312 4.77344 27.5312C4.33594 27.5312 3.97656 27.8867 3.97656 28.3242V28.7227C3.97656 29.1602 4.33594 29.5195 4.77344 29.5195Z" fill="white"/>
<path d="M4.77344 15.6367C5.21094 15.6367 5.57031 15.2773 5.57031 14.8398V14.4414C5.57031 14.0039 5.21094 13.6484 4.77344 13.6484C4.33594 13.6484 3.97656 14.0039 3.97656 14.4414V14.8398C3.97656 15.3164 4.33594 15.6367 4.77344 15.6367Z" fill="white"/>
<path d="M4.77344 5.25391C5.21094 5.25391 5.57031 4.89453 5.57031 4.45703V4.05859C5.57031 3.62109 5.21094 3.26562 4.77344 3.26562C4.33594 3.26562 3.97656 3.62109 3.97656 4.05859V4.45703C3.97656 4.89453 4.33594 5.25391 4.77344 5.25391Z" fill="white"/>
<path d="M4.77344 19.1367C5.21094 19.1367 5.57031 18.7773 5.57031 18.3398V17.9414C5.57031 17.5039 5.21094 17.1484 4.77344 17.1484C4.33594 17.1484 3.97656 17.5039 3.97656 17.9414V18.3398C3.97656 18.7773 4.33594 19.1367 4.77344 19.1367Z" fill="white"/>
<path d="M4.77344 8.71484C5.21094 8.71484 5.57031 8.35547 5.57031 7.91797V7.51953C5.57031 7.08203 5.21094 6.72656 4.77344 6.72656C4.33594 6.72656 3.97656 7.08203 3.97656 7.51953V7.91797C3.97656 8.35547 4.33594 8.71484 4.77344 8.71484Z" fill="white"/>
<path d="M4.77344 12.1758C5.21094 12.1758 5.57031 11.8164 5.57031 11.3789V10.9805C5.57031 10.543 5.21094 10.1875 4.77344 10.1875C4.33594 10.1875 3.97656 10.543 3.97656 10.9805V11.3789C3.97656 11.8164 4.33594 12.1758 4.77344 12.1758Z" fill="white"/>
<path d="M16.9453 15.8358C16.9453 15.3163 17.3828 14.8397 17.9414 14.2811C18.457 13.7265 19.0156 13.1679 19.2148 12.414C19.4531 11.578 19.2539 10.664 18.6953 9.90614C18.0586 9.0702 17.1055 8.55458 16.1094 8.51552C14.5586 8.47646 13.2461 9.46864 12.9297 10.8632C12.8476 11.3007 13.1289 11.6952 13.5273 11.8163C13.9648 11.8944 14.3594 11.6171 14.4805 11.2186C14.6406 10.5429 15.2773 10.1054 16.0312 10.1054C16.5469 10.1054 17.0273 10.4257 17.3828 10.8632C17.664 11.2186 17.7422 11.6171 17.6211 11.9765C17.5039 12.3749 17.1055 12.7694 16.707 13.2069C16.0312 13.9257 15.2773 14.7186 15.3164 15.8749V17.2655C15.3164 17.703 15.6719 18.0624 16.1094 18.0624C16.5469 18.0624 16.9062 17.703 16.9062 17.2655V15.8358H16.9453Z" fill="white"/>
<path d="M16.1171 19.6483C16.3397 19.6483 16.5233 19.7265 16.6796 19.8866C16.8319 20.0429 16.9101 20.2304 16.9061 20.4491C16.9061 20.6679 16.8241 20.8554 16.6679 21.0116C16.5116 21.164 16.3241 21.2382 16.1054 21.2382C15.8827 21.2343 15.6991 21.1561 15.5429 20.9999C15.3905 20.8436 15.3124 20.6561 15.3163 20.4335C15.3163 20.2147 15.3983 20.0272 15.5546 19.8749C15.7108 19.7226 15.8983 19.6444 16.1171 19.6483Z" fill="white"/>
<mask id="mask8_25_145" style="mask-type:luminance" maskUnits="userSpaceOnUse" x="0" y="33" width="18" height="18">
<path d="M0 33.9297H17.4062V50.9297H0V33.9297Z" fill="white"/>
</mask>
<g mask="url(#mask8_25_145)">
<path d="M16.707 42.5664C16.707 37.9531 12.9688 34.2148 8.35547 34.2148C3.73828 34.2148 0 37.9531 0 42.5664C0 47.1836 3.73828 50.9219 8.35547 50.9219C12.9688 50.9219 16.707 47.1836 16.707 42.5664ZM8.35547 49.3281C4.61328 49.3281 1.58984 46.3086 1.58984 42.5664C1.58984 38.8281 4.61328 35.8047 8.35547 35.8047C12.0938 35.8047 15.1172 38.8281 15.1172 42.5664C15.1172 46.3086 12.0938 49.3281 8.35547 49.3281Z" fill="white"/>
</g>
<path d="M8.35547 43.7617C8.79297 43.7617 9.14844 43.4023 9.14844 42.9648V38.9883C9.14844 38.5508 8.79297 38.1914 8.35547 38.1914C7.91797 38.1914 7.55859 38.5508 7.55859 38.9883V42.9648C7.55859 43.4023 7.91797 43.7617 8.35547 43.7617Z" fill="white"/>
<path d="M9.14844 46.1484C9.14844 46.3672 9.07031 46.5547 8.91797 46.7109C8.76172 46.8672 8.57422 46.9414 8.35547 46.9414C8.13281 46.9414 7.94531 46.8672 7.79297 46.7109C7.63672 46.5547 7.55859 46.3672 7.55859 46.1484C7.55859 45.9297 7.63672 45.7422 7.79297 45.5859C7.94531 45.4297 8.13281 45.3516 8.35547 45.3516C8.57422 45.3516 8.76172 45.4297 8.91797 45.5859C9.07031 45.7422 9.14844 45.9297 9.14844 46.1484Z" fill="white"/>
<path d="M48.5742 45.0742L40.8555 37.3555C40.3359 36.8398 39.6602 36.5586 38.9453 36.6016C38.4297 36.6016 37.9102 36.7578 37.4727 37.0781L36.1992 35.8828C39.6211 31.668 39.3828 25.4219 35.4844 21.4844C31.3086 17.3047 24.5039 17.3047 20.2891 21.4844C16.1094 25.6602 16.1094 32.5039 20.2891 36.6797C22.3984 38.7891 25.1406 39.8242 27.8867 39.8242C30.4727 39.8242 33.0586 38.9062 35.125 37.0391L36.3594 38.1914C35.5625 39.2656 35.6445 40.7383 36.5586 41.6523L44.2773 49.3711C45.3086 50.4023 47.0625 50.3242 48.0938 49.2891L48.5312 48.8516C49.5664 47.8203 49.6055 46.1094 48.5742 45.0742ZM34.3711 35.5664C30.7891 39.1445 24.9805 39.1445 21.4414 35.5664C17.8633 31.9844 17.8633 26.1758 21.4414 22.6367C25.0234 19.0586 30.832 19.0586 34.3711 22.6367C37.9492 26.1758 37.9492 31.9844 34.3711 35.5664ZM47.3789 47.7383L46.9414 48.1758C46.5039 48.6133 45.7891 48.6523 45.3906 48.2578L37.6719 40.5391C37.2734 40.1406 37.2734 39.4258 37.7539 38.9883L38.1914 38.5508C38.5859 38.1523 39.3047 38.0703 39.7422 38.4688L47.457 46.1875C47.8555 46.5859 47.8164 47.3008 47.3789 47.7383Z" fill="white"/>
<path d="M40.5781 48.5352C40.5781 48.9727 40.2188 49.3281 39.7812 49.3281H15.6328C15.0781 49.9258 14.4414 50.4844 13.7227 50.9219H39.7812C40.8164 50.9219 41.6914 50.2852 42.0078 49.3711L40.5781 47.9375V48.5352Z" fill="white"/>
<path d="M8.75 32.6211V5.57031C8.75 5.13281 9.10938 4.77344 9.54688 4.77344H30.1953V12.7695C30.1953 14.0859 31.2695 15.1172 32.582 15.1172H40.5781V35.2891C41.0938 35.4844 41.5703 35.8047 41.9688 36.2031L42.1289 36.3633V14.4805C42.1289 14.2422 42.0469 13.8867 41.8477 13.7266L31.5469 3.38281C31.4258 3.26563 31.1875 3.18359 30.9883 3.18359H9.54688C8.23438 3.18359 7.16016 4.25781 7.16016 5.57031V32.7031C7.55859 32.6602 7.95703 32.6211 8.35547 32.6211C8.47266 32.6211 8.63281 32.6211 8.75 32.6211ZM31.7852 5.92969L39.2656 13.5273H32.582C32.1445 13.5273 31.7852 13.168 31.7852 12.7695V5.92969Z" fill="white"/>
</g>
<defs>
<clipPath id="clip0_25_145">
<rect width="49.3279" height="50.9219" fill="white"/>
</clipPath>
</defs>
</svg>
