<svg width="53" height="47" viewBox="0 0 53 47" fill="none" xmlns="http://www.w3.org/2000/svg">
<g clip-path="url(#clip0_25_86)">
<path d="M31.4612 37.5781H34.0823C35.2307 37.5586 35.2307 35.8477 34.0823 35.8281H31.4612C30.3127 35.8477 30.3127 37.5586 31.4612 37.5781Z" fill="white"/>
<mask id="mask0_25_86" style="mask-type:luminance" maskUnits="userSpaceOnUse" x="-1" y="0" width="54" height="47">
<path d="M-0.284912 0H52.7151V46.4688H-0.284912V0Z" fill="white"/>
</mask>
<g mask="url(#mask0_25_86)">
<path d="M46.3127 19.1602C46.3088 19.1094 46.2854 19.0664 46.2737 19.0195C54.4963 13.1914 50.4026 0.03125 40.1995 0C34.5041 0 29.8635 4.56641 29.7268 10.2305C27.551 9.41406 24.883 9.41406 22.7073 10.2305C22.5705 4.56641 17.9299 0 12.2346 0C2.00024 0.070312 -2.06226 13.1484 6.16039 19.0195C6.14867 19.0664 6.12524 19.1094 6.12133 19.1602C2.32836 21.3711 -0.0271085 25.6016 0.000235519 30V33.4961C0.000235519 33.8438 0.207267 34.1602 0.527579 34.3008C4.84399 36.1367 9.64477 36.9727 14.3401 36.6172C13.8166 38.3516 14.0198 41.2852 13.9807 43.1094C13.9807 43.4609 14.1916 43.7773 14.512 43.9141C18.1955 45.4805 22.219 46.3008 26.2151 46.3164C30.2151 46.3008 34.2541 45.4844 37.9221 43.9141C38.2424 43.7734 38.4495 43.457 38.4495 43.1094C38.3987 41.2656 38.6174 38.3906 38.0862 36.6172C42.7815 36.9727 47.5862 36.1367 51.9065 34.3008C52.2268 34.1602 52.4338 33.8438 52.4338 33.4961V30C52.4612 25.6094 50.1018 21.3633 46.3127 19.1602ZM40.1995 1.74609C45.0198 1.74609 48.9377 5.66797 48.9377 10.4844C49.0745 16.7109 42.1409 21.1562 36.5549 18.4102C36.0432 15.2656 34.133 12.5898 31.4768 11.043C31.1409 6.04297 35.1838 1.72656 40.1995 1.74609ZM44.0745 20.2227C43.4221 21.582 42.094 23.8281 40.1995 24.4336C38.6135 23.9297 37.4221 22.2891 36.6643 20.8945C36.676 20.7148 36.6877 20.5391 36.6916 20.3594C39.0237 21.2266 41.8049 21.1602 44.0745 20.2227ZM26.2151 11.3594C31.0354 11.3594 34.9573 15.2812 34.9573 20.0977C34.4768 31.6914 17.9573 31.6875 17.4768 20.0977C17.4768 15.2812 21.3987 11.3594 26.2151 11.3594ZM30.094 29.832C29.4807 31.2109 27.9065 33.5781 26.219 34.0469C24.3245 33.4414 22.9963 31.2031 22.3401 29.8359C24.7151 30.8281 27.7229 30.8281 30.094 29.832ZM3.49633 10.4844C3.49633 5.66797 7.4143 1.74609 12.2346 1.74609C17.2463 1.72656 21.2932 6.04297 20.9573 11.043C18.301 12.5898 16.3909 15.2656 15.8791 18.4102C10.2932 21.1562 3.35961 16.7109 3.49633 10.4844ZM15.7698 20.8945C15.012 22.2891 13.8205 23.9297 12.2346 24.4336C10.3401 23.8281 9.01586 21.5898 8.35961 20.2227C10.6291 21.1602 13.4104 21.2266 15.7424 20.3594C15.7463 20.5391 15.758 20.7148 15.7698 20.8945ZM8.02367 34.6289C5.87133 34.3008 3.75414 33.7227 1.74633 32.9141V30C1.7307 26.3242 3.61742 22.7969 6.71508 20.8438C7.23461 21.9492 8.13696 23.543 9.44164 24.7344L8.02367 34.6289ZM12.2346 34.957C11.4104 34.957 10.5823 34.9141 9.75805 34.8398L11.051 25.832C11.883 26.2969 12.5862 26.2969 13.4182 25.832L14.7073 34.832C13.8791 34.9062 13.051 34.957 12.2346 34.957ZM16.258 23.3672C16.9612 25.5078 18.3401 27.3438 20.1409 28.6328C20.1291 28.6797 20.1057 28.7227 20.1018 28.7695C18.4963 29.7148 17.1526 30.9961 16.137 32.5L15.0276 24.7344C15.4846 24.3164 15.8948 23.8516 16.258 23.3672ZM22.008 44.2383C19.8596 43.9102 17.7424 43.3359 15.7307 42.5273V39.6133C15.719 35.9297 17.5745 32.4336 20.6995 30.457C21.2151 31.5625 22.1174 33.1562 23.4221 34.3477L22.008 44.2383ZM26.2151 44.5703C25.3948 44.5703 24.5666 44.5273 23.7424 44.4531L25.0315 35.4414C25.8557 35.9102 26.5705 35.9141 27.4026 35.4414L28.6916 44.4531C27.8674 44.5273 27.0393 44.5703 26.2151 44.5703ZM36.7034 42.5273C34.6995 43.3359 32.5784 43.9102 30.426 44.2422L29.008 34.3398C30.2385 33.2773 31.2502 31.5273 31.7346 30.457C34.8205 32.3828 36.7307 35.9844 36.7034 39.6133V42.5273ZM36.2893 32.5352C35.2932 31.0078 33.8948 29.6836 32.3284 28.7734C32.3245 28.7227 32.3049 28.6797 32.2932 28.6328C34.094 27.3438 35.469 25.5078 36.176 23.3672C36.5393 23.8516 36.9495 24.3164 37.4065 24.7344L36.2893 32.5352ZM40.1995 34.957C39.383 34.957 38.5549 34.9062 37.7268 34.832L39.0159 25.832C39.8479 26.3008 40.551 26.2969 41.383 25.832L42.676 34.8398C41.8479 34.9141 41.0237 34.957 40.1995 34.957ZM50.6877 32.9141C48.6799 33.7227 46.5627 34.3008 44.4104 34.6289L42.9924 24.7344C44.301 23.543 45.2034 21.9453 45.719 20.8438C48.8166 22.7969 50.7034 26.3281 50.6877 30V32.9141Z" fill="white"/>
</g>
<path d="M44.5706 27.0898C44.5706 27.5742 44.9612 27.9648 45.4417 27.9648H48.0627C48.5471 27.9648 48.9377 27.5742 48.9377 27.0898C48.9377 26.6055 48.5471 26.2148 48.0627 26.2148H45.4417C44.9612 26.2148 44.5706 26.6055 44.5706 27.0898Z" fill="white"/>
<path d="M3.49634 27.0898C3.49634 27.5742 3.88696 27.9648 4.36743 27.9648H6.99243C7.4729 27.9648 7.86353 27.5742 7.86353 27.0898C7.86353 26.6055 7.4729 26.2148 6.99243 26.2148H4.36743C3.88696 26.2148 3.49634 26.6055 3.49634 27.0898Z" fill="white"/>
</g>
<defs>
<clipPath id="clip0_25_86">
<rect width="52.4341" height="46.3164" fill="white"/>
</clipPath>
</defs>
</svg>
