<svg width="121" height="107" viewBox="0 0 121 107" fill="none" xmlns="http://www.w3.org/2000/svg">
<g clip-path="url(#clip0_25_455)">
<path d="M72.0903 86.1758H78.0981C80.7271 86.1289 80.731 82.2109 78.0981 82.1641H72.0903C69.4614 82.2109 69.4575 86.1289 72.0903 86.1758Z" fill="black"/>
<mask id="mask0_25_455" style="mask-type:luminance" maskUnits="userSpaceOnUse" x="-1" y="0" width="122" height="107">
<path d="M-0.440918 0H120.559V106.215H-0.440918V0Z" fill="white"/>
</mask>
<g mask="url(#mask0_25_455)">
<path d="M106.122 43.9414C106.114 43.8281 106.063 43.7227 106.036 43.6133C124.879 30.2539 115.497 0.070313 92.1138 0C79.063 0 68.4302 10.4687 68.1138 23.457C63.1333 21.5898 57.0162 21.5898 52.0357 23.457C51.7193 10.4687 41.0865 0 28.0357 0C4.58647 0.164063 -4.72212 30.1523 14.1138 43.6133C14.0865 43.7227 14.0357 43.8281 14.0279 43.9414C5.34038 49.0039 -0.0619635 58.7148 0.000536505 68.7969V76.8164C0.000536505 77.6172 0.477099 78.3398 1.21147 78.6562C11.1021 82.8672 22.106 84.7891 32.8599 83.9766C31.6646 87.9492 32.1334 94.6797 32.0396 98.8594C32.0396 99.6641 32.5201 100.391 33.2584 100.703C41.6959 104.297 50.9146 106.176 60.0748 106.215C69.2349 106.18 78.4966 104.301 86.899 100.703C87.6333 100.387 88.1099 99.6602 88.1099 98.8594C87.9888 94.6328 88.4927 88.0391 87.2779 83.9727C98.0357 84.7891 109.044 82.8711 118.938 78.6562C119.672 78.3398 120.149 77.6172 120.149 76.8164V68.7969C120.215 58.7266 114.805 48.9961 106.122 43.9414ZM92.1138 4.00781C103.157 4.00781 112.141 12.9961 112.141 24.0469C112.454 38.3203 96.563 48.5156 83.7662 42.2227C82.5904 35.0078 78.2115 28.8711 72.1294 25.3203C71.3599 13.8555 80.6255 3.96094 92.1138 4.00781ZM100.997 46.375C99.5044 49.4961 96.4576 54.6406 92.1138 56.0352C88.481 54.8789 85.7544 51.1133 84.0123 47.9141C84.0435 47.5078 84.063 47.1016 84.0748 46.6914C89.4185 48.6719 95.7974 48.5195 100.997 46.375ZM60.0748 26.0508C71.1177 26.0508 80.1021 35.043 80.1021 46.0938C79.0005 72.6797 41.1451 72.6719 40.0513 46.0938C40.0513 35.043 49.0318 26.0508 60.0748 26.0508ZM68.9615 68.418C67.5591 71.5742 63.9459 77.0039 60.0787 78.0781C55.7388 76.6875 52.6998 71.5586 51.1959 68.418C56.6334 70.6953 63.524 70.6953 68.9615 68.418ZM8.01226 24.0469C8.01226 12.9961 16.9927 4.00781 28.0357 4.00781C39.524 3.96094 48.7896 13.8555 48.0201 25.3203C41.938 28.8711 37.5591 35.0078 36.3873 42.2227C23.5865 48.5117 7.69976 38.3203 8.01226 24.0469ZM36.1373 47.9141C34.399 51.1094 31.6685 54.8789 28.0357 56.0352C23.6998 54.6445 20.6568 49.5156 19.1529 46.375C24.356 48.5195 30.731 48.6719 36.0748 46.6914C36.0865 47.1016 36.106 47.5078 36.1373 47.9141ZM18.3873 79.4102C13.4576 78.6562 8.6021 77.3398 4.00444 75.4766V68.8008C3.96538 60.3672 8.2896 52.2773 15.3912 47.7969C16.5787 50.3359 18.6451 53.9922 21.6333 56.7188L18.3873 79.4102ZM28.0357 80.1602C26.149 80.1602 24.2544 80.0664 22.3638 79.8945L25.3208 59.2344C27.231 60.3086 28.8365 60.3086 30.7505 59.2422L33.7037 79.8789C31.8052 80.0508 29.9068 80.1602 28.0357 80.1602ZM37.2544 53.582C38.8716 58.5 42.0279 62.7109 46.1568 65.6602C46.1294 65.7656 46.0748 65.8672 46.0669 65.9766C42.3834 68.1484 39.3091 71.082 36.981 74.5352L34.4341 56.7188C35.4849 55.7617 36.4224 54.6953 37.2544 53.582ZM50.4302 101.453C45.5123 100.695 40.6568 99.3789 36.0435 97.5234V90.8438C36.0201 82.3984 40.274 74.375 47.4302 69.8438C48.6177 72.3828 50.6841 76.0391 53.6763 78.7656L50.4302 101.453ZM60.0748 102.207C58.188 102.207 56.2974 102.109 54.4029 101.938L57.3599 81.2812C59.2466 82.3477 60.8873 82.3555 62.7896 81.2812L65.7466 101.941C63.856 102.109 61.9654 102.207 60.0748 102.207ZM84.106 97.5234C79.5083 99.3828 74.6529 100.699 69.7232 101.457L66.4732 78.7461C69.2896 76.3164 71.6099 72.3008 72.7232 69.8438C79.7896 74.2578 84.1646 82.5195 84.106 90.8438V97.5234ZM83.1568 74.6094C80.8755 71.1055 77.6685 68.0742 74.0826 65.9844C74.0748 65.8711 74.024 65.7695 73.9966 65.6602C78.1216 62.7109 81.2818 58.5 82.8951 53.582C83.7271 54.6953 84.6646 55.7617 85.7154 56.7188L83.1568 74.6094ZM92.1138 80.1602C90.2427 80.1602 88.3443 80.0508 86.4498 79.8789L89.399 59.2422C91.313 60.3086 92.9185 60.3086 94.8287 59.2344L97.7857 79.8945C95.899 80.0664 94.0044 80.1602 92.1138 80.1602ZM116.145 75.4766C111.551 77.3398 106.696 78.6562 101.762 79.4102L98.5162 56.7188C101.512 53.9883 103.583 50.3242 104.762 47.7969C111.864 52.2773 116.188 60.375 116.145 68.8008V75.4805V75.4766Z" fill="black"/>
</g>
<path d="M102.129 62.125C102.129 63.2344 103.024 64.1289 104.129 64.1289H110.137C111.243 64.1289 112.141 63.2344 112.141 62.125C112.141 61.0156 111.243 60.1211 110.137 60.1211H104.129C103.024 60.1211 102.129 61.0156 102.129 62.125Z" fill="black"/>
<path d="M8.01221 62.125C8.01221 63.2344 8.90674 64.1289 10.0122 64.1289H16.02C17.1255 64.1289 18.0239 63.2344 18.0239 62.125C18.0239 61.0156 17.1255 60.1211 16.02 60.1211H10.0122C8.90674 60.1211 8.01221 61.0156 8.01221 62.125Z" fill="black"/>
</g>
<defs>
<clipPath id="clip0_25_455">
<rect width="120.15" height="106.215" fill="white"/>
</clipPath>
</defs>
</svg>
