<svg width="53" height="53" viewBox="0 0 53 53" fill="none" xmlns="http://www.w3.org/2000/svg">
<g clip-path="url(#clip0_25_32)">
<mask id="mask0_25_32" style="mask-type:luminance" maskUnits="userSpaceOnUse" x="0" y="0" width="53" height="53">
<path d="M-6.10352e-05 -6.10352e-05H52.4726V52.4687H-6.10352e-05V-6.10352e-05Z" fill="white"/>
</mask>
<g mask="url(#mask0_25_32)">
<path d="M26.2265 -6.10352e-05C11.7265 -6.10352e-05 -6.10352e-05 11.7265 -6.10352e-05 26.2226C-6.10352e-05 40.7187 11.7265 52.4453 26.2265 52.4453C40.7226 52.4453 52.4492 40.7187 52.4492 26.2226C52.4492 11.7265 40.7226 -6.10352e-05 26.2265 -6.10352e-05ZM26.2265 51.1679C19.6679 51.1679 13.6445 48.6093 9.2226 44.3984C9.38275 38.6953 13.9648 33.7382 20.7343 31.871C18.0156 30.0585 16.2578 27.0234 16.2578 23.5585C16.2578 18.0663 20.7343 13.539 26.2773 13.539C31.8203 13.539 36.246 18.0663 36.246 23.5585C36.246 27.0234 34.4335 30.1132 31.7695 31.871C38.4843 33.7382 43.0663 38.6953 43.2265 44.3984C38.8046 48.5546 32.7812 51.1679 26.2265 51.1679Z" fill="#0B476A"/>
</g>
</g>
<defs>
<clipPath id="clip0_25_32">
<rect width="52.4492" height="52.4453" fill="white"/>
</clipPath>
</defs>
</svg>
