<svg width="47" height="47" viewBox="0 0 47 47" fill="none" xmlns="http://www.w3.org/2000/svg">
<g clip-path="url(#clip0_25_138)">
<path d="M22.2188 37.832C21.4297 37.832 20.7422 37.5781 20.1523 37.0664C19.5664 36.5547 19.2734 35.8438 19.2734 34.9258C19.2734 34.1094 19.5547 33.4258 20.125 32.8711C20.6914 32.3125 21.3906 32.0352 22.2188 32.0352C23.0313 32.0352 23.7188 32.3125 24.2734 32.8711C24.8281 33.4258 25.1055 34.1094 25.1055 34.9258C25.1055 35.8281 24.8164 36.5391 24.2344 37.0586C23.6523 37.5742 22.9805 37.832 22.2188 37.832ZM12.7578 16.5859C12.7578 15.3594 13.1523 14.1133 13.9414 12.8555C14.7305 11.5937 15.8789 10.5508 17.3906 9.72266C18.9023 8.89844 20.668 8.48438 22.6836 8.48438C24.5586 8.48438 26.2109 8.82813 27.6445 9.51953C29.082 10.2109 30.1875 11.1523 30.9688 12.3398C31.7539 13.5312 32.1445 14.8242 32.1445 16.2188C32.1445 17.3164 31.9219 18.2812 31.4727 19.1055C31.0273 19.9336 30.5 20.6484 29.8867 21.25C29.2695 21.8477 28.168 22.8594 26.5781 24.2812C26.1406 24.6836 25.7891 25.0352 25.5234 25.3398C25.2578 25.6406 25.0625 25.9219 24.9336 26.1719C24.8008 26.4258 24.7031 26.6758 24.6328 26.9297C24.5586 27.1797 24.4531 27.625 24.3125 28.2578C24.0664 29.6016 23.2969 30.2734 22.0039 30.2734C21.332 30.2734 20.7656 30.0508 20.3086 29.6133C19.8516 29.1758 19.6211 28.5195 19.6211 27.6562C19.6211 26.5703 19.7891 25.6289 20.125 24.8359C20.4609 24.0391 20.9062 23.3438 21.4609 22.7422C22.0156 22.1406 22.7656 21.4258 23.7109 20.5977C24.5391 19.875 25.1367 19.3281 25.5039 18.9609C25.8711 18.5937 26.1836 18.1836 26.4336 17.7305C26.6875 17.2773 26.8125 16.7852 26.8125 16.2578C26.8125 15.2227 26.4258 14.3516 25.6602 13.6406C24.8906 12.9297 23.8984 12.5742 22.6836 12.5742C21.2617 12.5742 20.2148 12.9336 19.543 13.6484C18.8711 14.3672 18.3008 15.4219 17.8359 16.8203C17.3984 18.2812 16.5625 19.0078 15.3359 19.0078C14.6133 19.0078 14 18.7539 13.5039 18.2422C13.0078 17.7344 12.7578 17.1797 12.7578 16.5859Z" fill="white"/>
<mask id="mask0_25_138" style="mask-type:luminance" maskUnits="userSpaceOnUse" x="0" y="0" width="47" height="47">
<path d="M0 0H46.4688V46.4688H0V0Z" fill="white"/>
</mask>
<g mask="url(#mask0_25_138)">
<path d="M23.1602 44.1328C19.5508 44.1328 15.9961 43.2031 12.8711 41.4414L12.0938 41L11.2305 41.2344L5.70703 42.7266L3.82422 43.2305L4.32812 41.3477L5.72266 36.1484L5.96875 35.2188L5.45312 34.4102C3.3125 31.0508 2.18359 27.1602 2.18359 23.1562C2.18359 11.5898 11.5938 2.18359 23.1602 2.18359C34.7266 2.18359 44.1367 11.5898 44.1367 23.1562C44.1367 34.7227 34.7266 44.1328 23.1602 44.1328ZM23.1602 0C10.3672 0 0 10.3672 0 23.1562C0 27.7305 1.32422 31.9922 3.61328 35.582L2.21875 40.7812L0.738281 46.3164L6.27344 44.832L11.7969 43.3398C15.1562 45.2344 19.0312 46.3164 23.1602 46.3164C35.9492 46.3164 46.3164 35.9492 46.3164 23.1562C46.3164 10.3672 35.9492 0 23.1602 0Z" fill="white"/>
</g>
</g>
<defs>
<clipPath id="clip0_25_138">
<rect width="46.3164" height="46.3164" fill="white"/>
</clipPath>
</defs>
</svg>
