<svg width="97" height="97" viewBox="0 0 97 97" fill="none" xmlns="http://www.w3.org/2000/svg">
<g clip-path="url(#clip0_25_558)">
<path d="M46.2891 78.8164C44.6445 78.8164 43.2109 78.2852 41.9844 77.2227C40.7617 76.1602 40.1484 74.6719 40.1484 72.7617C40.1484 71.0625 40.7422 69.6367 41.9258 68.4805C43.1094 67.3203 44.5625 66.7422 46.2891 66.7422C47.9844 66.7422 49.4102 67.3203 50.5664 68.4805C51.7266 69.6367 52.3047 71.0625 52.3047 72.7617C52.3047 74.6445 51.6992 76.125 50.4883 77.2031C49.2734 78.2773 47.875 78.8164 46.2891 78.8164ZM26.5781 34.5547C26.5781 32 27.3984 29.4062 29.043 26.7812C30.6836 24.1562 33.082 21.9844 36.2305 20.2617C39.3828 18.5391 43.0547 17.6758 47.2578 17.6758C51.1602 17.6758 54.6055 18.3945 57.5938 19.8359C60.582 21.2773 62.8906 23.2344 64.5195 25.7109C66.1484 28.1914 66.9648 30.8828 66.9648 33.7891C66.9648 36.0781 66.5 38.082 65.5703 39.8047C64.6406 41.5312 63.5391 43.0156 62.2578 44.2695C60.9805 45.5195 58.6836 47.6289 55.375 50.5898C54.457 51.4258 53.7227 52.1562 53.1719 52.7891C52.6211 53.4219 52.2109 54 51.9414 54.5273C51.6719 55.0508 51.4609 55.5781 51.3164 56.1016C51.168 56.625 50.9453 57.5508 50.6484 58.8672C50.1367 61.668 48.5352 63.0664 45.8438 63.0664C44.4414 63.0664 43.2656 62.6094 42.3086 61.6953C41.3516 60.7812 40.875 59.4219 40.875 57.6172C40.875 55.3555 41.2266 53.3945 41.9258 51.7383C42.625 50.0859 43.5547 48.6289 44.7109 47.3789C45.8672 46.125 47.4297 44.6406 49.3945 42.9141C51.1172 41.4102 52.3633 40.2695 53.1328 39.5039C53.8984 38.7344 54.5469 37.8828 55.0703 36.9375C55.5938 35.9961 55.8594 34.9727 55.8594 33.8711C55.8594 31.7148 55.0586 29.8984 53.457 28.418C51.8516 26.9375 49.7852 26.1953 47.2578 26.1953C44.293 26.1953 42.1133 26.9453 40.7148 28.4375C39.3125 29.9336 38.1289 32.1328 37.1602 35.043C36.2461 38.082 34.5078 39.6055 31.9492 39.6055C30.4414 39.6055 29.1719 39.0742 28.1328 38.0078C27.0977 36.9453 26.5781 35.7969 26.5781 34.5547Z" fill="black"/>
<mask id="mask0_25_558" style="mask-type:luminance" maskUnits="userSpaceOnUse" x="0" y="0" width="97" height="97">
<path d="M0 0H96.4922V96.4922H0V0Z" fill="white"/>
</mask>
<g mask="url(#mask0_25_558)">
<path d="M48.2461 91.9453C40.7305 91.9453 33.3203 90.0078 26.8125 86.3359L25.1914 85.4219L23.3945 85.9062L11.8906 89.0117L7.96484 90.0625L9.01562 86.1367L11.918 75.3086L12.4375 73.375L11.3633 71.6914C6.90234 64.6914 4.54688 56.5859 4.54688 48.2461C4.54688 24.1523 24.1523 4.54688 48.2461 4.54688C72.3438 4.54688 91.9453 24.1523 91.9453 48.2461C91.9453 72.3438 72.3438 91.9453 48.2461 91.9453ZM48.2461 0C21.6016 0 0 21.6016 0 48.2461C0 57.7734 2.76172 66.6523 7.52734 74.1328L4.625 84.9609L1.53516 96.4922L13.0664 93.4023L24.5781 90.2969C31.5703 94.2383 39.6445 96.4922 48.2461 96.4922C74.8906 96.4922 96.4922 74.8906 96.4922 48.2461C96.4922 21.6016 74.8906 0 48.2461 0Z" fill="black"/>
</g>
</g>
<defs>
<clipPath id="clip0_25_558">
<rect width="96.4922" height="96.4922" fill="white"/>
</clipPath>
</defs>
</svg>
