<svg width="74" height="74" viewBox="0 0 74 74" fill="none" xmlns="http://www.w3.org/2000/svg">
<g clip-path="url(#clip0_25_466)">
<mask id="mask0_25_466" style="mask-type:luminance" maskUnits="userSpaceOnUse" x="-1" y="0" width="75" height="74">
<path d="M-0.351562 0H73.8984V73.5078H-0.351562V0Z" fill="white"/>
</mask>
<g mask="url(#mask0_25_466)">
<path d="M46.7422 37.0156C46.5117 36.7852 46.5117 36.4414 46.7422 36.2148L72.1445 10.8125C73.5156 9.44141 73.5156 7.15234 72.1445 5.77734L67.5078 1.03125C66.8242 0.34375 65.9062 0 64.9922 0C64.0781 0 63.1602 0.34375 62.4727 1.03125L37.0156 26.4883C36.9023 26.6016 36.7305 26.6602 36.6172 26.6602C36.5 26.6602 36.3281 26.6016 36.2148 26.4883L10.7578 1.03125C10.0703 0.34375 9.15625 0 8.23828 0C7.32422 0 6.41016 0.34375 5.72266 1.03125L1.03125 5.72266C-0.34375 7.09375 -0.34375 9.38281 1.03125 10.7539L26.4336 36.1562C26.6602 36.3867 26.6602 36.7305 26.4336 36.957L1.03125 62.4727C-0.34375 63.8477 -0.34375 66.1367 1.03125 67.5078L5.72266 72.1992C6.41016 72.8867 7.32422 73.2305 8.23828 73.2305C9.15625 73.2305 10.0703 72.8867 10.7578 72.1992L36.1562 46.7969C36.2734 46.6836 36.4453 46.625 36.5586 46.625C36.6719 46.625 36.8438 46.6836 36.957 46.7969L62.3594 72.1992C63.0469 72.8867 63.9609 73.2305 64.8789 73.2305C65.793 73.2305 66.707 72.8867 67.3945 72.1992L72.0859 67.5078C73.457 66.1367 73.457 63.8477 72.0859 62.4727L46.7422 37.0156Z" fill="white"/>
</g>
</g>
<defs>
<clipPath id="clip0_25_466">
<rect width="73.1729" height="73.2305" fill="white"/>
</clipPath>
</defs>
</svg>
