<svg width="243" height="64" viewBox="0 0 243 64" fill="none" xmlns="http://www.w3.org/2000/svg">
<g clip-path="url(#clip0_25_207)">
<path d="M20.7264 45.8509C21.0194 46.6595 20.6053 47.5501 19.8006 47.8431C18.992 48.1361 18.1053 47.722 17.8123 46.9134C17.5194 46.1087 17.9334 45.2181 18.7381 44.9212C19.5428 44.6283 20.4334 45.0462 20.7264 45.8509Z" fill="#0B476A"/>
<path d="M23.0935 17.9838C23.0935 18.1635 23.0584 18.3353 22.988 18.5033C22.9216 18.6713 22.8201 18.8197 22.6951 18.9447C22.5662 19.0736 22.4177 19.1713 22.2498 19.2416C22.0857 19.3119 21.9099 19.347 21.7302 19.347C21.5466 19.347 21.3748 19.3119 21.2068 19.2416C21.0388 19.1713 20.8943 19.0736 20.7654 18.9447C20.6365 18.8197 20.5388 18.6713 20.4685 18.5033C20.3982 18.3353 20.3669 18.1635 20.3669 17.9838C20.3669 17.8002 20.3982 17.6283 20.4685 17.4603C20.5388 17.2924 20.6365 17.1439 20.7654 17.0189C20.8943 16.89 21.0388 16.7924 21.2068 16.722C21.3748 16.6517 21.5466 16.6166 21.7302 16.6166C21.9099 16.6166 22.0857 16.6517 22.2498 16.722C22.4177 16.7924 22.5662 16.89 22.6951 17.0189C22.8201 17.1439 22.9216 17.2924 22.988 17.4603C23.0584 17.6283 23.0935 17.8002 23.0935 17.9838Z" fill="#0B476A"/>
<path d="M48.9334 28.8001C53.4334 27.0931 55.7498 22.0658 54.1013 17.5306C52.5857 13.0775 47.3084 10.5736 42.906 12.2103L39.6169 3.16342C38.7888 0.722011 35.8748 -0.637364 33.4724 0.29623C31.1834 1.12826 29.9138 3.54232 30.4412 5.85873C28.7732 8.76107 26.7537 11.4486 24.4216 13.847C24.0115 14.2689 24.0232 14.9408 24.4451 15.347C24.863 15.7572 25.5349 15.7454 25.9451 15.3275C27.9763 13.2337 29.7888 10.9329 31.3474 8.4642L42.4841 39.1126C34.613 36.6126 26.0505 36.472 18.1013 38.7454L12.906 24.4408C14.7615 23.6126 16.5701 22.6439 18.2849 21.554C18.781 21.2415 18.9255 20.5853 18.613 20.0892C18.3005 19.597 17.6443 19.4486 17.1482 19.765C13.6834 22.2337 6.70679 24.5111 2.69117 25.9798C0.57398 26.7533 -0.523677 29.1048 0.245855 31.2259L4.05054 41.6908C4.75757 43.7767 7.24585 44.9369 9.29664 44.14L11.8279 43.2181L18.4138 61.3392C19.0349 63.1751 21.2693 64.1556 23.0388 63.3626L27.5662 61.4564C29.281 60.7376 30.1248 58.8001 29.488 57.0501L23.2107 39.7728C29.9802 38.6751 37.0076 39.3236 43.4607 41.6908C44.4919 43.7923 47.1716 44.847 49.363 43.9994C51.8435 43.0931 53.1287 40.3392 52.2263 37.8548L48.9334 28.8001ZM8.57007 42.1478C7.58179 42.5306 6.38648 41.972 6.04273 40.9681L5.41382 39.2337L9.40601 37.7806C9.95679 37.5775 10.2419 36.9681 10.0427 36.4173C9.8396 35.8704 9.23023 35.5853 8.67945 35.7845L4.69117 37.2415L3.59351 34.2298L7.5896 32.7728C8.14039 32.5736 8.42164 31.9642 8.22242 31.4134C8.01929 30.8626 7.41382 30.5814 6.86304 30.7806L2.87085 32.2337L2.24195 30.4994C1.86695 29.4798 2.3982 28.347 3.41773 27.972L10.9373 25.2337L16.0857 39.4056L8.57007 42.1478ZM24.6091 49.8353L17.4412 52.4486L13.8201 42.4915L17.7693 41.0501C18.863 40.722 19.9841 40.4173 21.1013 40.1751L24.6091 49.8353ZM48.6365 42.0072C47.2966 42.5267 45.6755 41.7689 45.2107 40.4095L32.6013 5.7142C32.1013 4.33139 32.8162 2.79232 34.199 2.28842C35.5388 1.76889 37.1599 2.5267 37.6248 3.88607L50.2302 38.5814C50.7341 39.9642 50.0193 41.5033 48.6365 42.0072Z" fill="#0B476A"/>
<path d="M56.8241 9.33923C55.9178 9.37048 55.3983 8.15955 56.0741 7.53064L61.5428 2.05017C61.9569 1.63611 62.6288 1.63611 63.0428 2.05017C63.4569 2.46423 63.4569 3.13611 63.0428 3.55017L57.5741 9.02673C57.367 9.23377 57.0975 9.33923 56.8241 9.33923Z" fill="#0B476A"/>
<mask id="mask0_25_207" style="mask-type:luminance" maskUnits="userSpaceOnUse" x="60" y="21" width="11" height="4">
<path d="M60.6873 21.7103H70.656V24.7103H60.6873V21.7103Z" fill="white"/>
</mask>
<g mask="url(#mask0_25_207)">
<path d="M69.8552 24.6673C69.824 24.6673 62.0545 23.9877 62.0545 23.9877C61.4724 23.9369 61.0388 23.4213 61.0935 22.8392C61.1443 22.2533 61.656 21.8236 62.242 21.8744L69.9451 22.5502C70.531 22.6009 70.9607 23.1166 70.9099 23.6986C70.8631 24.2494 70.3982 24.6673 69.8552 24.6673Z" fill="#0B476A"/>
</g>
<path d="M60.3943 16.3353C59.2537 16.3744 58.9256 14.64 60.031 14.2767L67.3006 11.6283C67.8513 11.4252 68.4607 11.7103 68.6599 12.2611C68.8592 12.8119 68.5779 13.4213 68.0271 13.6205L60.7576 16.2689C60.6404 16.3119 60.5154 16.3353 60.3943 16.3353Z" fill="#0B476A"/>
<path d="M101.305 30.2009L100.149 36.8727H110.633L109.586 42.779H99.1018L97.8206 49.9665H109.68L108.571 56.1384H88.8987L94.5706 24.029H114.242L113.149 30.2009H101.305Z" fill="#6497B5"/>
<path d="M126.418 48.8259L135.199 30.6071H143.574L129.996 56.1384H120.293L115.761 30.6071H124.089L126.418 48.8259Z" fill="#6497B5"/>
<path d="M158.216 30.2477C161.505 30.2477 164.122 31.1384 166.06 32.9196C167.997 34.7009 168.966 37.1345 168.966 40.2165C168.966 41.2282 168.892 42.1306 168.747 42.9196C168.622 43.6188 168.435 44.3649 168.185 45.154H150.482C150.451 45.3415 150.435 45.6345 150.435 46.029C150.435 47.3727 150.798 48.3962 151.529 49.0915C152.267 49.7907 153.247 50.1384 154.466 50.1384C156.411 50.1384 157.908 49.3181 158.951 47.6696H167.279C166.173 50.2634 164.388 52.3845 161.919 54.029C159.451 55.6774 156.673 56.4977 153.591 56.4977C150.298 56.4977 147.669 55.5876 145.701 53.7634C143.732 51.9313 142.747 49.4431 142.747 46.2946C142.747 45.3571 142.841 44.3845 143.029 43.3727C143.486 40.7165 144.427 38.4001 145.857 36.4196C147.294 34.4431 149.079 32.9196 151.216 31.8571C153.349 30.7868 155.685 30.2477 158.216 30.2477ZM161.06 41.1852C161.122 40.7595 161.154 40.4665 161.154 40.3102C161.154 39.0915 160.767 38.154 159.997 37.4977C159.236 36.8415 158.232 36.5134 156.982 36.5134C155.638 36.5134 154.454 36.9196 153.435 37.7321C152.411 38.5368 151.673 39.6852 151.216 41.1852H161.06Z" fill="#6497B5"/>
<path d="M190.573 30.3415C193.135 30.3415 195.143 31.0602 196.604 32.4977C198.073 33.9274 198.807 35.9196 198.807 38.4821C198.807 39.3376 198.714 40.2477 198.526 41.2165L195.87 56.1384H188.089L190.573 42.279C190.655 41.7595 190.698 41.3024 190.698 40.904C190.698 39.6227 190.339 38.6345 189.62 37.9352C188.909 37.2282 187.917 36.8727 186.635 36.8727C185.104 36.8727 183.815 37.3493 182.776 38.2946C181.745 39.2438 181.077 40.572 180.776 42.279V42.0446L178.307 56.1384H170.479L174.964 30.6071H182.792L182.198 34.0446C183.198 32.9118 184.421 32.0095 185.87 31.3415C187.327 30.6774 188.893 30.3415 190.573 30.3415Z" fill="#6497B5"/>
<path d="M211.943 47.3571C211.912 47.5056 211.896 47.7009 211.896 47.9509C211.896 48.5056 212.052 48.9001 212.365 49.1384C212.685 49.3806 213.212 49.4977 213.943 49.4977H216.74L215.552 56.1384H211.568C206.443 56.1384 203.88 53.9899 203.88 49.6852C203.88 49.0524 203.958 48.2438 204.115 47.2634L205.943 37.1071H202.833L203.974 30.6071H207.083L208.177 24.3884H216.005L214.912 30.6071H220.037L218.896 37.1071H213.771L211.943 47.3571Z" fill="#6497B5"/>
<path d="M230.519 56.4977C228.496 56.4977 226.683 56.1774 225.082 55.5446C223.488 54.9001 222.23 54.0095 221.316 52.8727C220.398 51.7282 219.941 50.404 219.941 48.904C219.941 48.697 219.972 48.3181 220.035 47.7634H227.582C227.519 48.7126 227.8 49.4665 228.425 50.029C229.05 50.5915 229.945 50.8727 231.113 50.8727C232.082 50.8727 232.882 50.6931 233.519 50.3259C234.164 49.9626 234.488 49.447 234.488 48.779C234.488 48.1345 234.144 47.6227 233.457 47.2477C232.769 46.8649 231.632 46.3962 230.05 45.8415C228.402 45.2907 227.023 44.7477 225.91 44.2165C224.793 43.6852 223.839 42.9196 223.05 41.9196C222.257 40.9118 221.863 39.6384 221.863 38.1071C221.863 36.6188 222.304 35.2751 223.191 34.0759C224.074 32.8688 225.316 31.9313 226.91 31.2634C228.511 30.5876 230.367 30.2477 232.472 30.2477C234.574 30.2477 236.402 30.5915 237.957 31.279C239.519 31.9665 240.726 32.9196 241.582 34.1384C242.433 35.3571 242.863 36.7282 242.863 38.2477L242.816 38.9352H235.722C235.785 38.0212 235.507 37.2907 234.894 36.7477C234.289 36.197 233.425 35.9196 232.3 35.9196C231.414 35.9196 230.683 36.1032 230.113 36.4665C229.55 36.8337 229.269 37.3376 229.269 37.9821C229.269 38.6501 229.644 39.2087 230.394 39.654C231.144 40.0915 232.308 40.5876 233.894 41.1384C235.539 41.6813 236.902 42.2243 237.988 42.7634C239.07 43.2946 240.004 44.0407 240.785 44.9977C241.566 45.9587 241.957 47.154 241.957 48.5915C241.957 50.2399 241.457 51.654 240.457 52.8415C239.464 54.029 238.105 54.9352 236.379 55.5602C234.66 56.1852 232.707 56.4977 230.519 56.4977Z" fill="#6497B5"/>
<path d="M97.9451 26.8431L96.8044 33.5228H107.285L106.222 39.4212H95.7419L94.4685 46.6048H106.324L105.219 52.7806H85.5427L91.2185 20.6634H110.89L109.797 26.8431H97.9451ZM123.066 45.4642L131.847 27.2454H140.226L126.629 52.7806H116.933L112.398 27.2454H120.73L123.066 45.4642ZM154.859 26.886C158.16 26.886 160.777 27.7806 162.711 29.5657C164.648 31.347 165.617 33.7806 165.617 36.8626C165.617 37.8665 165.543 38.7649 165.394 39.554C165.265 40.2532 165.082 41.0032 164.836 41.8001H147.129C147.097 41.9876 147.082 42.2767 147.082 42.6712C147.082 44.011 147.449 45.0306 148.179 45.7337C148.914 46.4329 149.894 46.7806 151.117 46.7806C153.066 46.7806 154.562 45.9603 155.597 44.3118H163.918C162.824 46.9056 161.039 49.0267 158.566 50.679C156.093 52.3274 153.32 53.1517 150.246 53.1517C146.945 53.1517 144.312 52.2337 142.347 50.4017C140.383 48.5696 139.398 46.0813 139.398 42.9407C139.398 41.9915 139.492 41.0189 139.676 40.011C140.133 37.3626 141.074 35.0462 142.504 33.0657C143.941 31.0735 145.726 29.5501 147.855 28.4837C149.992 27.4173 152.328 26.886 154.859 26.886ZM157.695 37.8235C157.761 37.3899 157.797 37.1009 157.797 36.9524C157.797 35.7298 157.414 34.7923 156.648 34.136C155.886 33.4798 154.883 33.1517 153.629 33.1517C152.289 33.1517 151.105 33.5579 150.078 34.3704C149.058 35.1751 148.32 36.3274 147.867 37.8235H157.695ZM187.211 26.9759C189.773 26.9759 191.785 27.6946 193.242 29.1321C194.711 30.5618 195.445 32.5579 195.445 35.1204C195.445 35.9759 195.355 36.8939 195.176 37.8665L192.515 52.7806H184.742L187.211 38.9173C187.301 38.3978 187.343 37.9368 187.343 37.5423C187.343 36.261 186.988 35.2728 186.273 34.5735C185.558 33.8704 184.558 33.5228 183.277 33.5228C181.75 33.5228 180.472 33.9954 179.437 34.9407C178.402 35.886 177.73 37.2103 177.426 38.9173V38.6829L174.945 52.7806H167.125L171.605 27.2454H179.437L178.843 30.6829C179.847 29.554 181.074 28.6517 182.519 27.9798C183.972 27.3118 185.535 26.9759 187.211 26.9759ZM208.578 43.9993C208.547 44.1478 208.531 44.347 208.531 44.5931C208.531 45.1438 208.691 45.5423 209.011 45.7884C209.332 46.0267 209.859 46.1439 210.597 46.1439H213.379L212.195 52.7806H208.218C203.086 52.7806 200.523 50.6282 200.523 46.3235C200.523 45.6829 200.601 44.8743 200.758 43.9017L202.59 33.7454H199.472L200.621 27.2454H203.726L204.824 21.0228H212.652L211.558 27.2454H216.676L215.535 33.7454H210.41L208.578 43.9993ZM227.152 53.1517C225.14 53.1517 223.336 52.8313 221.734 52.1907C220.133 51.5501 218.875 50.6595 217.957 49.5189C217.043 48.3704 216.586 47.0501 216.586 45.554C216.586 45.3392 216.613 44.9524 216.676 44.4017H224.226C224.168 45.347 224.449 46.1048 225.074 46.6712C225.699 47.2376 226.593 47.5189 227.754 47.5189C228.73 47.5189 229.539 47.3353 230.179 46.972C230.82 46.6087 231.14 46.0892 231.14 45.4212C231.14 44.7806 230.793 44.2689 230.101 43.8899C229.418 43.5032 228.281 43.0306 226.695 42.4798C225.047 41.9368 223.668 41.3978 222.55 40.8626C221.441 40.3235 220.488 39.554 219.691 38.5501C218.902 37.5423 218.508 36.2767 218.508 34.7493C218.508 33.2532 218.949 31.9056 219.836 30.7064C220.722 29.4993 221.965 28.5618 223.566 27.89C225.168 27.222 227.019 26.886 229.117 26.886C231.226 26.886 233.058 27.2298 234.613 27.9134C236.172 28.6009 237.375 29.554 238.222 30.7728C239.078 31.9954 239.508 33.3665 239.508 34.886L239.465 35.5774H232.371C232.429 34.6595 232.152 33.9329 231.543 33.386C230.941 32.8353 230.07 32.5618 228.941 32.5618C228.054 32.5618 227.328 32.7454 226.761 33.1087C226.203 33.472 225.922 33.9759 225.922 34.6165C225.922 35.2884 226.297 35.847 227.039 36.2923C227.785 36.7337 228.949 37.2259 230.539 37.7767C232.191 38.3235 233.558 38.8626 234.636 39.3978C235.718 39.9329 236.644 40.6829 237.418 41.6439C238.199 42.6048 238.593 43.8001 238.593 45.2298C238.593 46.8743 238.097 48.2923 237.105 49.4837C236.117 50.679 234.758 51.5853 233.027 52.2103C231.308 52.8353 229.347 53.1517 227.152 53.1517Z" stroke="#0B476A" stroke-width="2.94592"/>
</g>
<defs>
<clipPath id="clip0_25_207">
<rect width="242.863" height="63.6398" fill="white"/>
</clipPath>
</defs>
</svg>
